<svg fill="#000" height="512" viewBox="0 0 55 58" width="512" xmlns="https://www.w3.org/2000/svg"><g id="Page-1" fill="none" fill-rule="evenodd"><g id="083---Latte" fill-rule="nonzero"><path id="Shape" d="m53.08 26.87c-1.62 2.58-4.13 3.7-5.96 4.53l-.44.2c-.9324108.412641-1.7879217.9807273-2.53 1.68-1.0078162 1.0127435-1.930908 2.1064066-2.76 3.27l-.36.48-.451-4.725 1.271-2.335c.9561401-.811788 2.0194482-1.4881327 3.16-2.01 1.75-.8 3.61-1.52 4.68-3.22.9722196-1.3827551.9480317-3.2331305-.06-4.59-1.6-2.01-4.21-1.63-6.5-1.14l-.718-2.4 1.208-1.77c2.53-.41 6.46-.55 9.14 2.82 2.0861375 2.6781289 2.2152288 6.3935392.32 9.21z" fill="#bdc3c7"/><path id="Shape" d="m40.34 42.98.21.02c2.31.48 4.07 2.57 3.24 4.93-.96 2.74-4.59 3.79-7.17 4.29-2.2857412.5386785-4.6484772.6706938-6.98.39.8470123-1.1348792 1.4930492-2.4066587 1.91-3.76z" fill="#a59078"/><path id="Shape" d="m17.6 42.37-.5-4.27-3.15-26.94h30.1l-.43 3.68-.49 4.17-.03.28v.02l-1.25 10.66-.82 7.06-.69 5.94v.01l-.34 2.87c0 1.44-4.16 2.65-8.45 3z" fill="#cbb292"/><path id="Shape" d="m44.98 3.15-.91 7.85-.02.16c-.4 1.59-6.5 2.84-15.05 2.84s-14.65-1.25-15.05-2.84l-.02-.16-.91-7.85z" fill="#f9eab0"/><path id="Shape" d="m30.96 42.15h-.01c-2.46 2.34-4.33.56-6.79 3.02-2.51 2.5-.63 4.38-3.14 6.88-2.47 2.46-4.33.68-6.8 3.02-.1816684-.2948653-.3420753-.6023119-.48-.92-1.38-3.25-.2-7.79 3.21-11.17.21-.21.43-.41.65-.6v-.01c4.09-3.61 9.55-4.21 12.52-1.27.0845914.0793196.1615923.166364.23.26.2235261.2471046.4274756.5112359.61.79z" fill="#a56a43"/><path id="Shape" d="m31.55 48.85c-.4169508 1.3533413-1.0629877 2.6251208-1.91 3.76-.4283579.5780045-.8996944 1.1228828-1.41 1.63-4.15 4.15-10.05 4.98-13.17 1.88-.065429-.0615728-.1256356-.128469-.18-.2-.0195386-.0174207-.0363883-.0376402-.05-.06-.2258665-.2451383-.4299699-.509469-.61-.79 2.47-2.34 4.33-.56 6.8-3.02 2.51-2.5.63-4.38 3.14-6.88 2.46-2.46 4.33-.68 6.79-3.02h.01c.1796029.2925815.3399428.5965592.48.91.7049128 1.8592489.7437846 3.9053182.11 5.79z" fill="#805333"/><path id="Shape" d="m31.44 43.06c-1.0302926.9064592-2.3308168 1.4477585-3.7 1.54-2.2403432.1239468-4.0306617 1.9099616-4.16 4.15-.2441165 3.1317553-2.7374298 5.6165735-5.87 5.85-1.0482686.0459185-2.0438049.4725769-2.8 1.2-.03.02-.05.04-.08.06-.2258665-.2451383-.4299699-.509469-.61-.79-.1816684-.2948653-.3420753-.6023119-.48-.92 1.031467-.8967728 2.3265973-1.433778 3.69-1.53 1.0879571-.0444148 2.1179889-.5022067 2.88-1.28.7836616-.7547666 1.2457728-1.7828744 1.29-2.87.2442863-3.1278827 2.7317046-5.6110563 5.86-5.85 1.046611-.0446501 2.041487-.4674723 2.8-1.19.0274939-.0263883.0576559-.0498476.09-.07.2235261.2471046.4274756.5112359.61.79.1796029.2925815.3399428.5965592.48.91z" fill="#603e26"/><path id="Shape" d="m7.82 49.67c0 4.09 3.04 4.15 3.14 8.15v.01c-.3267482.0695068-.6573273.1195945-.99.15-5.45.42-9.98-5.33-9.97-12.48-.01-5.71 2.89-10.54 6.83-12.02.32013946-.1300417.65152609-.2304619.99-.3.1 4 3.14 4.06 3.14 8.15 0 4.17-3.14 4.17-3.14 8.34z" fill="#cf976a"/><path id="Shape" d="m17.6 42.37v.01c-.22.19-.44.39-.65.6-3.74 3.71-4.8 8.82-2.73 12.09.1935553.3029121.4144803.5874367.66.85-.8770839.7056783-1.8679058 1.2568863-2.93 1.63-.3230466.1163684-.6538586.2099314-.99.28v-.01c-.1-4-3.14-4.06-3.14-8.15 0-4.17 3.14-4.17 3.14-8.34 0-4.09-3.04-4.15-3.14-8.15.32661372-.0702436.65723754-.1203381.99-.15.19268886-.0199665.38627943-.0299798.58-.03 3.12.01 5.88 2.02 7.58 5.12l.13-.02z" fill="#cb8252"/><path id="Shape" d="m10.18 53.22c1.0618388 1.2021668 1.6856661 2.7282527 1.77 4.33-.3230466.1163684-.6538586.2099314-.99.28-.3267482.0695068-.6573273.1195945-.99.15-.00829479-.0428082-.01165007-.0864268-.01-.13-.02767314-1.2712197-.51428121-2.4895158-1.37-3.43-2.36019341-2.7344799-2.36019341-6.7855201 0-9.52.89472883-.972053 1.38473725-2.2489362 1.37-3.57.01967568-1.314128-.46734147-2.585386-1.36-3.55-1.05434921-1.1950116-1.67756465-2.7090378-1.77-4.3.32013946-.1300417.65152609-.2304619.99-.3.32661372-.0702436.65723754-.1203381.99-.15.00828475.0394323.01164376.0797403.01.12.02767314 1.2712197.51428121 2.4895158 1.37 3.43 2.3601934 2.7344799 2.3601934 6.7855201 0 9.52-.89472883.972053-1.38473725 2.2489362-1.37 3.57-.01967568 1.314128.46734147 2.585386 1.36 3.55z" fill="#805333"/><path id="Shape" d="m45 3-.02.15c-.4 1.59-6.88 2.85-15.98 2.85s-15.58-1.26-15.98-2.85l-.02-.15c0-1.66 6.61-3 16-3s16 1.34 16 3z" fill="#f5efca"/></g></g></svg>