<?xml version="1.0" encoding="iso-8859-1"?>
<!-- Generator: Adobe Illustrator 19.0.0, SVG Export Plug-In . SVG Version: 6.00 Build 0)  -->
<svg fill="#000" version="1.1" id="Capa_1" xmlns="https://www.w3.org/2000/svg" xmlns:xlink="https://www.w3.org/1999/xlink" x="0px" y="0px"
	 viewBox="0 0 512 512" style="enable-background:new 0 0 512 512;" xml:space="preserve">
<g>
	<g>
		<path d="M440,0H72C32.254,0.044,0.044,32.254,0,72v368c0.044,39.746,32.254,71.956,72,72h368c39.746-0.044,71.956-32.254,72-72V72
			C511.956,32.254,479.746,0.044,440,0z M496,440c-0.035,30.913-25.087,55.965-56,56H72c-30.913-0.035-55.965-25.087-56-56V72
			c0.035-30.913,25.087-55.965,56-56h368c30.913,0.035,55.965,25.087,56,56V440z"/>
	</g>
</g>
<g>
	<g>
		<path d="M462.997,252.159c-0.048-0.083-0.098-0.166-0.149-0.247l-72-120c-1.401-2.359-3.913-3.836-6.656-3.912
			c-2.751-0.105-5.354,1.248-6.848,3.56l-73.6,110.36L190.512,83.352c-1.479-2.072-3.855-3.316-6.4-3.352
			c-2.518,0.059-4.886,1.209-6.488,3.152L92.08,195.44c-2.639,3.543-1.906,8.555,1.637,11.195c3.486,2.596,8.407,1.934,11.083-1.491
			l78.984-103.664l113.696,159.2c1.552,2.113,4.019,3.358,6.64,3.352c2.629-0.042,5.069-1.373,6.528-3.56l72.992-109.488
			l65.496,109.168c2.207,3.827,7.099,5.141,10.927,2.934C463.89,260.879,465.204,255.987,462.997,252.159z"/>
	</g>
</g>
<g>
	<g>
		<path d="M82.144,221.744c-3.515-2.68-8.536-2.003-11.216,1.512L49.64,251.152c-2.677,3.515-1.999,8.534,1.516,11.212
			c1.392,1.061,3.094,1.635,4.844,1.636c2.51,0.011,4.879-1.156,6.4-3.152l21.256-27.888
			C86.336,229.445,85.659,224.424,82.144,221.744z"/>
	</g>
</g>
<g>
	<g>
		<path d="M456,328c-13.1,0.086-25.697-5.04-35.016-14.248c-25.341-23.668-64.683-23.668-90.024,0
			c-19.468,18.993-50.532,18.993-70,0c-25.323-23.675-64.661-23.675-89.984,0c-19.464,18.997-50.528,18.997-69.992,0
			C88.847,302.244,72.725,295.882,56,296c-4.418,0-8,3.582-8,8s3.582,8,8,8c13.089-0.082,25.673,5.041,34.984,14.24
			c25.323,23.675,64.661,23.675,89.984,0c19.464-18.997,50.528-18.997,69.992,0c25.329,23.668,64.663,23.668,89.992,0
			c19.482-18.998,50.558-18.998,70.04,0C423.136,337.754,439.266,344.119,456,344c4.418,0,8-3.582,8-8S460.418,328,456,328z"/>
	</g>
</g>
<g>
	<g>
		<path d="M456,392c-13.1,0.086-25.697-5.04-35.016-14.248c-25.341-23.668-64.683-23.668-90.024,0
			c-19.468,18.993-50.532,18.993-70,0c-25.323-23.675-64.661-23.675-89.984,0c-19.464,18.997-50.528,18.997-69.992,0
			C88.847,366.244,72.725,359.882,56,360c-4.418,0-8,3.582-8,8s3.582,8,8,8c13.089-0.082,25.673,5.041,34.984,14.24
			c25.323,23.675,64.661,23.675,89.984,0c19.464-18.997,50.528-18.997,69.992,0c25.329,23.668,64.663,23.668,89.992,0
			c19.482-18.998,50.558-18.998,70.04,0C423.136,401.754,439.266,408.119,456,408c4.418,0,8-3.582,8-8S460.418,392,456,392z"/>
	</g>
</g>
<g>
</g>
<g>
</g>
<g>
</g>
<g>
</g>
<g>
</g>
<g>
</g>
<g>
</g>
<g>
</g>
<g>
</g>
<g>
</g>
<g>
</g>
<g>
</g>
<g>
</g>
<g>
</g>
<g>
</g>
</svg>
