<svg id="Capa_1" enable-background="new 0 0 512 512" height="512" viewBox="0 0 512 512" width="512" xmlns="http://www.w3.org/2000/svg"><g><path d="m382.96 63.48c0-35.059-28.421-63.48-63.48-63.48s-63.48 28.421-63.48 63.48v136.325h126.96z" fill="#e7a561"/><path d="m382.96 199.805v-72.304l-12.208-7.724c-6.796-4.3-15.46-4.3-22.256 0l-12.286 7.773c-6.796 4.299-15.46 4.299-22.256 0l-12.286-7.773c-6.796-4.299-15.46-4.299-22.256 0l-23.412 14.814v65.214z" fill="#e49542"/><g><path d="m224.739 39.545h-72.763c-5.195 0-9.407-4.212-9.407-9.407v-20.731c0-5.195 4.212-9.407 9.407-9.407h72.763c5.195 0 9.407 4.212 9.407 9.407v20.731c0 5.195-4.211 9.407-9.407 9.407z" fill="#b3e59f"/><path d="m224.739 0h-23.935c5.195 0 9.407 4.212 9.407 9.407v20.731c0 5.195-4.212 9.407-9.407 9.407h23.935c5.195 0 9.407-4.212 9.407-9.407v-20.731c0-5.195-4.211-9.407-9.407-9.407z" fill="#95d6a4"/><path d="m245.587 105.792-10.393-11.779c-6.71-7.605-10.413-17.398-10.413-27.541v-26.927h-72.846v26.928c0 10.142-3.703 19.936-10.413 27.541l-10.393 11.779c-6.71 7.605-10.413 17.398-10.413 27.541v122.666h135.284v-122.667c0-10.143-3.703-19.936-10.413-27.541z" fill="#ffe07d"/><path d="m256 134.591-23.414-14.813c-6.796-4.299-15.46-4.299-22.256 0l-12.286 7.773c-6.796 4.299-15.46 4.299-22.256 0l-12.286-7.773c-6.796-4.299-15.46-4.299-22.256 0l-20.054 12.688c-.15.272-.328.595-.477.867v122.667h135.285z" fill="#ffd064"/></g><path d="m413.793 146.801-14.12 8.933c-3.364 2.128-7.652 2.128-11.016 0l-23.525-14.884c-3.364-2.128-7.652-2.128-11.016 0l-23.525 14.884c-3.364 2.128-7.652 2.128-11.016 0l-23.525-14.884c-3.364-2.128-7.652-2.128-11.016 0l-23.525 14.884c-3.364 2.128-7.652 2.128-11.016 0l-23.525-14.884c-3.364-2.128-7.652-2.128-11.016 0l-23.525 14.884c-3.364 2.128-7.652 2.128-11.016 0l-23.525-14.884c-3.364-2.128-7.652-2.128-11.016 0l-23.525 14.884c-3.364 2.128-7.652 2.128-11.016 0l-14.12-8.933c-6.665-4.217-15.402.313-15.797 8.19l-17.35 346.192c-.295 5.884 4.397 10.817 10.289 10.817h361.298c5.892 0 10.584-4.933 10.289-10.817l-17.348-346.192c-.395-7.876-9.132-12.406-15.797-8.19z" fill="#f1d0a5"/><path d="m276.391 408.383c-62.095 47.505-126.903 82.495-187.256 103.617h347.514c5.892 0 10.584-4.933 10.289-10.817l-12.994-259.303c-36.532 56.857-90.395 115.125-157.553 166.503z" fill="#f1b986"/><ellipse cx="319.48" cy="81.171" fill="#f1b986" rx="31.22" ry="16.65"/><circle cx="256" cy="311.155" fill="#ecf4ff" r="67.642"/><path d="m291.319 253.462c6.307 10.281 9.949 22.374 9.949 35.319 0 37.358-30.285 67.642-67.642 67.642-12.946 0-25.038-3.642-35.319-9.949 11.894 19.387 33.281 32.323 57.693 32.323 37.358 0 67.642-30.285 67.642-67.642 0-24.413-12.935-45.799-32.323-57.693z" fill="#cbe2ff"/><g><path d="m349.659 486.426h-187.318c-4.268 0-7.726-3.459-7.726-7.726s3.459-7.726 7.726-7.726h187.318c4.268 0 7.726 3.459 7.726 7.726s-3.458 7.726-7.726 7.726z" fill="#95d6a4"/></g><g><path d="m318.439 444.8h-124.878c-4.268 0-7.726-3.459-7.726-7.726s3.459-7.726 7.726-7.726h124.877c4.268 0 7.726 3.459 7.726 7.726s-3.458 7.726-7.725 7.726z" fill="#95d6a4"/></g></g></svg>