<svg fill="#000" height="511pt" viewBox="0 1 511 511.999" width="511pt" xmlns="https://www.w3.org/2000/svg"><path d="m112.082031 494.492188c37.917969 11.460937 78.710938 17.507812 118.6875 17.507812h176.699219c24.8125 0 44.996094-20.1875 44.996094-44.996094 0-5.859375-1.136719-11.449218-3.179688-16.585937 19.09375-5.203125 33.175782-22.6875 33.175782-43.410157 0-5.855468-1.136719-11.449218-3.179688-16.585937 19.09375-5.203125 33.179688-22.6875 33.179688-43.410156 0-20.722657-14.085938-38.207031-33.179688-43.410157 2.046875-5.136718 3.179688-10.726562 3.179688-16.585937 0-24.808594-20.183594-44.984375-44.996094-44.984375h-120.480469c18.203125-30.578125 18.792969-58.761719 9.539063-79.507812-11.308594-25.355469-37.117188-40.484376-69.042969-40.484376h-15v17.386719c.03125 32.535157.046875 48.863281-56.058594 80.902344-20.203125 11.535156-43.878906 18.824219-67.757813 21.007813-6.378906-17.101563-22.871093-29.304688-42.171874-29.304688h-75.992188v299.964844h75.992188c14.46875.003906 27.351562-6.863282 35.589843-17.503906zm89.21875-248.113282c32.449219-18.53125 51.398438-35.019531 61.433594-53.46875 7.191406-13.210937 9.085937-26.042968 9.578125-39.175781 12.628906 3.117187 22.085938 10.398437 26.816406 21.007813 8.128906 18.230468 1.09375 43.0625-18.800781 67.289062h-22.847656v29.988281h179.984375c8.273437 0 15 6.730469 15 15s-6.726563 15.007813-15 15.007813h-104.992188v29.988281h134.992188c8.269531 0 14.996094 6.726563 14.996094 15 0 8.269531-6.726563 15.007813-14.996094 15.007813h-134.992188v29.988281h104.992188c8.273437 0 15 6.726562 15 14.996093 0 8.273438-6.726563 15.011719-15 15.011719h-104.992188v29.984375h74.996094c8.269531 0 15 6.730469 15 15 0 8.269532-6.730469 15.007813-15 15.007813h-176.699219c-36.816406 0-74.359375-5.535157-109.277343-16.011719v-194.785156c28.242187-2.539063 55.582031-11.003906 79.808593-24.835938zm-170.800781-4.359375h45.996094c8.269531 0 14.996094 6.730469 14.996094 15v209.984375c0 8.269532-6.726563 15.007813-14.996094 15.007813h-45.996094zm0 0"/><path d="m272.480469 302.023438h29.996093v29.996093h-29.996093zm0 0"/><path d="m272.480469 362.019531h29.996093v29.996094h-29.996093zm0 0"/><path d="m272.480469 422.011719h29.996093v30h-29.996093zm0 0"/><path d="m368.246094 173 55.433594-22.535156 56.269531 20.351562-4.304688-59.683594 36.742188-47.226562-58.089844-14.347656-33.5625-49.558594-31.597656 50.832031-57.484375 16.609375 38.5625 45.753906zm40.285156-96.546875 13.28125-21.367187 14.105469 20.832031 24.421875 6.03125-15.445313 19.855469 1.808594 25.089843-23.652344-8.554687-23.304687 9.472656.828125-25.140625-16.210938-19.234375zm0 0"/></svg>