<svg fill="#000" fill="#000" height="512pt" viewBox="0 -32 512.02201 512" width="512pt" xmlns="https://www.w3.org/2000/svg" ><path d="m104.921875 447.726562c36.191406 0 66.46875-25.789062 73.433594-59.957031h154.898437c6.964844 34.167969 37.246094 59.957031 73.4375 59.957031s66.472656-25.789062 73.433594-59.957031h31.484375v-14.988281c0-53.972656-40.964844-98.550781-93.4375-104.289062l-23.292969-120.539063h26.800782v-89.933594h-44.964844c-24.796875 0-44.96875 20.171875-44.96875 44.96875 0 5.253907.917968 10.296875 2.578125 14.988281h-62.53125v29.964844h45.007812c-9.429687 12.535156-15.03125 28.117188-15.03125 44.976563v104.921875h-63.027343c-3.464844-24.113282-15.15625-45.605469-32.132813-61.527344 19.109375-5.179688 33.207031-22.667969 33.207031-43.394531 0-19.539063-12.53125-36.199219-29.976562-42.386719v-122.488281h-179.863282v122.488281c-17.445312 6.1875-29.976562 22.847656-29.976562 42.386719 0 20.726562 14.101562 38.214843 33.210938 43.394531-20.425782 19.15625-33.210938 46.367188-33.210938 76.515625v74.941406h31.484375c6.964844 34.164063 37.246094 59.957031 73.4375 59.957031zm0-29.980468c-19.542969 0-36.203125-12.539063-42.390625-29.984375h84.777344c-6.1875 17.441406-22.847656 29.984375-42.386719 29.984375zm226.824219-118.3125v-106.515625c0-20.621094 13.957031-38.042969 32.914062-43.324219l23.1875 119.964844c-21.773437 3.964844-41.222656 14.675781-56.101562 29.875zm74.945312 118.3125c-19.539062 0-36.199218-12.539063-42.386718-29.984375h84.773437c-6.1875 17.441406-22.847656 29.984375-42.386719 29.984375zm73.4375-59.953125h-146.875c6.964844-34.164063 37.246094-59.953125 73.4375-59.953125s66.472656 25.789062 73.4375 59.953125zm-118.402344-254.804688c0-8.265625 6.722657-14.992187 14.988282-14.992187h14.988281v29.980468c-5.382813 0-9.335937 0-14.988281 0-8.265625 0-14.988282-6.726562-14.988282-14.988281zm-59.957031 254.804688h-61.953125v-29.976563h61.953125zm-91.929687-44.964844v44.964844c-10.402344 0-169.304688 0-179.863282 0v-29.976563h89.933594v-29.976562h-88.425781c6.964844-34.167969 37.242187-59.957032 73.4375-59.957032h29.976563c41.324218 0 74.941406 33.621094 74.941406 74.945313zm-149.886719-254.808594h44.96875v29.976563h29.976563v-29.976563h44.964843v89.933594h-119.910156zm-14.988281 149.886719c-8.265625 0-14.988282-6.722656-14.988282-14.988281s6.722657-14.988281 14.988282-14.988281h149.886718c8.265626 0 14.988282 6.722656 14.988282 14.988281s-6.722656 14.988281-14.988282 14.988281c-5.671874 0-142.773437 0-149.886718 0zm0 0"/><path d="m451.65625 87.996094h59.953125v29.980468h-59.953125zm0 0"/><path d="m511.992188 179.898438-14.765626 26.085937-52.960937-29.976563 14.765625-26.089843zm0 0"/><path d="m444.292969 29.988281 52.960937-29.9765622 14.769532 26.0898432-52.964844 29.976563zm0 0"/></svg>