<svg fill="#000" height="512pt" viewBox="0 0 512 512" width="512pt" xmlns="https://www.w3.org/2000/svg"><path d="m422 105c0-57.898438-47.550781-105-106-105-22.292969 0-42.980469 6.988281-60 18.882812-17.019531-11.894531-37.707031-18.882812-60-18.882812-57.898438 0-105 47.101562-105 105v15h-91v392h512v-392h-90zm-30 0v15c-10.019531 0-81.046875 0-91 0v-15c0-24.476562-8.421875-47.027344-22.515625-64.902344 11.042969-6.40625 23.855469-10.097656 37.515625-10.097656 41.90625 0 76 33.644531 76 75zm45 353.214844 23.785156 23.785156h-47.570312zm-15-27.429688-30 30v-310.785156h30zm-166-370.734375c9.414062 12.535157 15 28.101563 15 44.949219v15h-30v-15c0-16.847656 5.585938-32.414062 15-44.949219zm-135 44.949219c0-41.355469 33.644531-75 75-75 13.660156 0 26.472656 3.691406 37.515625 10.097656-14.09375 17.875-22.515625 40.425782-22.515625 64.902344v15h-90zm-91 377v-332h61v47h30v-47h150v47h30v-47h61v332zm452-21.214844-30-30v-280.785156h30zm0 0"/><path d="m307.097656 353.96875c-17.585937-17.585938-46.050781-17.589844-63.636718 0l-12.429688-12.429688c16.339844-33.648437-4.941406-89.796874-30-114.851562-29.304688-29.308594-76.75-29.3125-106.0625 0-29.308594 29.308594-29.316406 76.753906 0 106.066406 25.296875 25.296875 81.402344 46.238282 114.851562 30l12.425782 12.425782c-17.542969 17.546874-17.542969 46.09375 0 63.640624 17.546875 17.546876 46.09375 17.546876 63.640625 0 3.582031-3.582031 6.410156-7.765624 8.546875-12.667968 4.902344-2.136719 9.085937-4.960938 12.667968-8.542969 17.582032-17.585937 17.585938-46.054687-.003906-63.640625zm-190.917968-42.429688c-17.585938-17.582031-17.589844-46.050781 0-63.636718 17.585937-17.585938 46.050781-17.589844 63.640624 0 19.921876 19.921875 36.238282 69.828125 21.210938 84.851562-15.144531 15.144532-65.078125-1.4375-84.851562-21.214844zm169.707031 84.855469c-3.292969 3.289063-8.785157 3.636719-15.585938 5.625-2 6.839844-2.339843 12.300781-5.628906 15.585938-5.847656 5.847656-15.363281 5.847656-21.210937 0-5.847657-5.847657-5.847657-15.363281 0-21.214844 3.289062-3.289063 8.78125-3.636719 15.585937-5.625 2-6.839844 2.339844-12.300781 5.625-15.585937 5.863281-5.863282 15.351563-5.863282 21.214844 0 5.859375 5.863281 5.863281 15.351562 0 21.214843zm0 0"/></svg>