<svg fill="#000" height="512pt" viewBox="0 0 512 512" width="512pt" xmlns="https://www.w3.org/2000/svg"><path d="m181 241h150v30h-150zm0 0"/><path d="m105.996094 307.214844-21.214844-21.214844 21.214844-21.210938 21.210937 21.210938zm0 0"/><path d="m331 75c0-41.355469-33.644531-75-75-75s-75 33.644531-75 75c0 41.460938 33.535156 76 75 76 41.460938 0 75-34.535156 75-76zm-120 0c0-24.8125 20.1875-45 45-45s45 20.1875 45 45c0 24.933594-20.605469 46-45 46s-45-21.066406-45-46zm0 0"/><path d="m437 181v30c24.8125 0 45 20.1875 45 45 0 19.964844-13.074219 36.925781-31.109375 42.796875-8.921875-67.671875-71.203125-117.796875-140.824219-117.796875h-136.167968c-14.546876-19.730469-32.769532-31.335938-54.273438-34.546875-47.039062-7.019531-91.363281 30.339844-93.226562 31.933594l-12.324219 10.539062 44.851562 44.851563c-8.660156 11.273437-15.503906 23.859375-20.234375 37.222656h-38.691406v120h53.679688c7.859374 12.023438 17.023437 22.453125 26.8125 30.472656 11.496093 9.417969 30.105468 31.550782 25.59375 73.9375l-1.769532 16.589844h90.484375l3.855469-46.246094c.644531-7.714844 7.207031-13.753906 14.949219-13.753906h54.789062c7.742188 0 14.308594 6.042969 14.949219 13.753906l3.855469 46.246094h90.484375l-1.769532-16.589844c-3.414062-32.070312 5.261719-56.726562 25.789063-73.285156 28.289063-22.816406 46.023437-56.378906 49.613281-92.511719 34.527344-6.703125 60.683594-37.152343 60.683594-73.613281 0-41.355469-33.644531-75-75-75zm-54.132812 217.773438c-24.730469 19.949218-37.582032 48.5-37.667969 83.226562h-30.394531l-1.5625-18.738281c-1.929688-23.136719-21.628907-41.261719-44.847657-41.261719h-54.789062c-23.21875 0-42.917969 18.125-44.847657 41.261719l-1.558593 18.738281h-30.40625c-.15625-45.941406-22.773438-71.839844-37.285157-83.734375-17.304687-14.171875-26.351562-33.5625-28.800781-37.265625h-40.707031v-60h31.410156c2.101563-5.757812 4.75-32.574219 28.765625-57.636719l10.160157-10.601562-41-40.996094c13.5-8.335937 35.207031-18.726563 55.859374-15.640625 27.570313 4.113281 39.40625 31.113281 42.574219 34.875h152.296875c58.757813 0 108.902344 44.550781 111.78125 99.308594 1.800782 34.253906-12.769531 67.324218-38.980468 88.464844zm0 0"/></svg>