<svg fill="#000" height="512pt" viewBox="0 0 512 512" width="512pt" xmlns="https://www.w3.org/2000/svg"><path d="m298.285156 60.398438c1.753906-4.804688 2.714844-9.992188 2.714844-15.398438 0-24.8125-20.1875-45-45-45s-45 20.1875-45 45c0 5.40625.960938 10.59375 2.714844 15.398438-97.9375 6.164062-175.859375 85.675781-183.144532 181.601562h-30.570312v15c0 41.355469 33.644531 75 75 75h14.804688c-.566407.476562-1.132813.949219-1.699219 1.4375-21.441407 18.527344-38.511719 43.851562-56.582031 70.664062-4.460938 6.621094-23.171876 33.804688-23.171876 33.804688l129.15625 73.800781 8.097657-8.101562c19.800781-19.796875 21.726562-20.296875 103.09375-26.726563 23.082031-1.824218 51.808593-4.09375 88.632812-7.5 20.648438-1.910156 39.761719-12.355468 52.4375-28.652344l107.902344-138.726562h-.710937c9.4375-12.546875 15.039062-28.128906 15.039062-45v-15h-30.570312c-7.285157-95.933594-85.21875-175.4375-183.144532-181.601562zm-42.285156-30.398438c8.269531 0 15 6.730469 15 15s-6.730469 15-15 15-15-6.730469-15-15 6.730469-15 15-15zm-30 60h60c86.507812 0 157.757812 66.917969 165.324219 152h-390.648438c7.566407-85.082031 78.816407-152 165.324219-152zm-151 212c-19.554688 0-36.238281-12.550781-42.429688-30.011719h446.859376c-11.921876 33.625-45.832032 29.542969-55.421876 30.011719-40.523437 0-305.253906 0-349.007812 0zm287 30-22.5 30h-10.007812c-2.257813-11.082031-6.980469-21.273438-13.546876-30zm4.089844 90.3125c-7.605469 9.777344-19.097656 16.046875-31.523438 17.195312-36.625 3.390626-65.238281 5.648438-88.230468 7.464844-74.507813 5.886719-90.898438 7.183594-113.589844 27.460938l-81.1875-46.390625c1.632812-2.417969 3.246094-4.808594 4.839844-7.171875 34.777343-51.59375 59.902343-88.871094 118.488281-88.871094h81.113281c19.554688 0 36.238281 12.539062 42.429688 30h-117.429688v30h173.5l31.5-42c9.847656-13.128906 19.730469-17.046875 38.855469-18h11.472656zm0 0"/></svg>