<svg fill="#000" height="512pt" viewBox="-61 0 512 512" width="512pt" xmlns="https://www.w3.org/2000/svg"><path d="m390 0h-390v512h390zm-30 30v30h-330v-30zm0 60v332h-330v-332zm-330 392v-30h330v30zm0 0"/><path d="m120 284.492188v107.507812h30v-107.507812c34.191406-6.96875 60-37.273438 60-73.492188v-91h-30v61h-30v-61h-30v61h-30v-61h-30v91c0 36.21875 25.808594 66.523438 60 73.492188zm60-73.492188c0 24.8125-20.1875 45-45 45s-45-20.1875-45-45zm0 0"/><path d="m300 392h30v-272h-14c-.101562.027344-28.792969-3.355469-54.152344 22.589844-14.089844 14.410156-21.847656 33.378906-21.847656 53.410156v135h60zm-30-91v-105c0-19.589844 12.71875-36.78125 30-43.257812v148.257812zm0 0"/></svg>