<svg fill="#000" height="512pt" viewBox="0 0 512 512" width="512pt" xmlns="https://www.w3.org/2000/svg"><path d="m256 0c-140.957031 0-256 115.046875-256 256 0 140.957031 115.046875 256 256 256 140.957031 0 256-115.046875 256-256 0-140.957031-115.046875-256-256-256zm0 482c-124.617188 0-226-101.382812-226-226s101.382812-226 226-226 226 101.382812 226 226-101.382812 226-226 226zm0 0"/><path d="m256 61c-107.84375 0-195 87.136719-195 195 0 107.84375 87.136719 195 195 195 107.84375 0 195-87.136719 195-195 0-107.84375-87.136719-195-195-195zm0 360c-90.980469 0-165-74.019531-165-165s74.019531-165 165-165 165 74.019531 165 165-74.019531 165-165 165zm0 0"/><path d="m241 121h30v30h-30zm0 0"/><path d="m241 361h30v30h-30zm0 0"/><path d="m171.148438 192.363281-21.214844-21.214843 21.214844-21.210938 21.210937 21.210938zm0 0"/><path d="m340.851562 362.070312-21.210937-21.214843 21.210937-21.210938 21.214844 21.210938zm0 0"/><path d="m121 241h30v30h-30zm0 0"/><path d="m361 241h30v30h-30zm0 0"/><path d="m171.144531 362.070312-21.210937-21.214843 21.210937-21.210938 21.214844 21.210938zm0 0"/><path d="m340.851562 149.929688 21.214844 21.214843-21.214844 21.210938-21.210937-21.210938zm0 0"/><path d="m271 181h-30v81.214844l46.828125 46.828125 21.214844-21.214844-38.042969-38.042969zm0 0"/></svg>