<svg fill="#000" height="512pt" viewBox="0 0 512 512" width="512pt" xmlns="https://www.w3.org/2000/svg"><path d="m429.328125 146.3125c10.285156-10.148438 22.195313-15.304688 32.746094-14.148438 13.648437 1.496094 27.035156-3.210937 36.734375-12.910156 17.585937-17.585937 17.589844-46.050781 0-63.640625-8.140625-8.140625-18.652344-12.503906-29.332032-13.089843-.585937-10.679688-4.949218-21.191407-13.09375-29.332032-17.582031-17.585937-46.046874-17.589844-63.636718 0-9.699219 9.699219-14.40625 23.089844-12.910156 36.734375 1.164062 10.65625-4.105469 22.707031-14.460938 33.0625l-14.898438 16.839844c-31.246093-4.625-64.925781 5.746094-92.824218 21.109375-32.695313-17.800781-66.140625-25.242188-94.027344-20.941406l-17.007812-17.007813c-10.355469-10.359375-15.628907-22.410156-14.460938-33.0625 1.496094-13.644531-3.210938-27.035156-12.910156-36.734375-17.546875-17.546875-46.09375-17.546875-63.640625 0-8.140625 8.140625-12.503907 18.652344-13.089844 29.332032-10.679687.585937-21.191406 4.949218-29.332031 13.089843-17.546875 17.546875-17.546875 46.09375 0 63.640625 9.699218 9.699219 23.085937 14.402344 36.734375 12.910156 10.65625-1.164062 22.707031 4.105469 33.0625 14.460938l16.933593 16.9375c-.820312 5.269531-1.21875 10.761719-1.179687 16.441406h-98.734375v30h32.070312l44.996094 301.996094h357.855469l45-301.996094h32.066406v-30h-96.082031c.039062-5.894531-.398438-11.585937-1.28125-17.039062zm-42.398437-42.457031c16.59375-16.765625 24.875-37.585938 22.726562-57.195313-.5-4.554687 1.070312-9.023437 4.300781-12.257812 5.851563-5.847656 15.367188-5.847656 21.214844 0s5.847656 15.363281 0 21.210937l-10.605469 10.609375 21.210938 21.210938 10.605468-10.605469c5.851563-5.847656 15.367188-5.847656 21.214844 0s5.847656 15.363281 0 21.210937c-3.234375 3.234376-7.703125 4.804688-12.257812 4.304688-19.742188-2.160156-40.71875 6.246094-57.539063 23.070312l-5.25 5.929688c-2.539062-3.804688-5.425781-7.34375-8.667969-10.582031-3.898437-3.902344-8.214843-7.289063-12.902343-10.171875zm-282.738282 21.558593c-16.824218-16.824218-37.796875-25.234374-57.539062-23.070312-4.554688.496094-9.027344-1.070312-12.261719-4.300781-5.847656-5.851563-5.847656-15.367188 0-21.214844 5.851563-5.847656 15.367187-5.847656 21.214844 0l10.605469 10.605469 21.214843-21.210938-10.605469-10.609375c-5.851562-5.847656-5.851562-15.363281 0-21.210937 5.847657-5.847656 15.363282-5.847656 21.210938 0 3.234375 3.234375 4.800781 7.703125 4.304688 12.257812-2.164063 19.746094 6.242187 40.714844 23.066406 57.539063l7.128906 7.128906c-4.234375 2.699219-8.179688 5.832031-11.78125 9.433594-3.574219 3.570312-6.71875 7.511719-9.441406 11.769531zm37.773438 16.558594c27.949218-27.945312 95.054687-10.0625 145.964844 38.03125h-159.21875c-.164063-13.019531 2.691406-27.46875 13.253906-38.03125zm-70.625 128.03125h58.988281l11.5625 151.996094h-47.902344zm199.65625 151.996094v-151.996094h81.328125l-10.738281 151.996094zm-30 0h-69.019532l-11.5625-151.996094h80.582032zm-138.066406 60-4.46875-30h315.070312l-4.46875 30zm315.070312-60h-46.339844l10.738282-151.996094h58.253906zm27.121094-181.996094h-378.25l-4.472656-30h387.191406zm-116.015625-60c-4.867188-5.78125-10.039063-11.417968-15.4375-16.816406-8.566407-8.566406-17.511719-16.324219-26.679688-23.257812 27.273438-11.800782 64.996094-18.644532 85.683594 2.042968 10.5625 10.5625 13.417969 25.011719 13.253906 38.03125zm0 0"/></svg>