<svg fill="#000" height="512pt" viewBox="0 0 512 512" width="512pt" xmlns="https://www.w3.org/2000/svg"><path d="m435.410156 222.695312-16.695312-4.871093c1.492187-7.042969 2.285156-14.34375 2.285156-21.824219 0-13.5625 0-104.878906 0-121 0-41.355469-33.644531-75-75-75h-60c-41.355469 0-75 33.644531-75 75v121c0 7.480469.792969 14.78125 2.285156 21.824219l-23.890625 6.972656c-36.34375 10.601563-61.683593 41.144531-67.21875 76.203125h-53.390625l-68.785156 68.785156v142.214844h512v-188.507812c0-46.1875-31.496094-87.636719-76.589844-100.796876zm-8.402344 28.800782c3.539063 1.03125 6.957032 2.320312 10.246094 3.8125-14.796875 30.167968-40.394531 53.890625-71.691406 66.269531l-13.484375-26.964844c24.097656-8.84375 44.078125-26.28125 56.214844-48.582031zm-186.007812-85.535156c12.542969 9.4375 28.128906 15.039062 45 15.039062h60c16.871094 0 32.457031-5.601562 45-15.039062v30.039062c0 41.355469-33.644531 75-75 75s-75-33.644531-75-75zm60-120.960938c0-8.269531 6.730469-15 15-15s15 6.730469 15 15v46h-30zm87.421875 76c-6.195313 17.457031-22.867187 30-42.421875 30h-60c-19.554688 0-36.226562-12.542969-42.421875-30zm2.578125-46v16h-30v-46c0-4.539062-.683594-8.925781-1.9375-13.0625 18.460938 5.613281 31.9375 22.789062 31.9375 43.0625zm-150 0c0-20.273438 13.476562-37.449219 31.9375-43.0625-1.253906 4.136719-1.9375 8.523438-1.9375 13.0625v46h-30zm-17.292969 171.035156c12.136719 22.296875 32.117188 39.734375 56.214844 48.578125l-13.484375 26.96875c-31.511719-12.46875-57.246094-36.433593-71.996094-66.894531 1.105469-.390625 2.222656-.761719 3.359375-1.09375zm-193.707031 235.964844v-99.785156l51.214844-51.214844h48.570312l51.214844 51.214844v99.785156c-17.777344 0-126.378906 0-151 0zm121.285156-171.929688c1.375-14.8125 7.839844-28.507812 17.824219-38.976562 37.597656 73.363281 108.707031 84.804688 112.699219 86.832031l19.191406-38.386719v162.460938h-90v-112.214844zm330.714844 171.929688h-151v-162.460938l19.191406 38.386719c4.300782-2.160156 73.625-12.980469 111.691406-84.871093 12.582032 13.550781 20.117188 31.433593 20.117188 50.4375zm0 0"/><path d="m91 361h30v30h-30zm0 0"/><path d="m391 391h60v30h-60zm0 0"/></svg>