<svg fill="#000" height="512pt" viewBox="-61 0 512 512" width="512pt" xmlns="https://www.w3.org/2000/svg"><path d="m194.898438 0c-100.707032 0-194.898438 81.496094-194.898438 195.898438 0 73.625 19.214844 108.769531 194.898438 316.101562 175.285156-207.160156 194.898437-242.652344 194.898437-316.101562 0-108.019532-87.433594-195.898438-194.898437-195.898438zm0 464.507812c-137.425782-168.515624-164.914063-196.125-164.914063-268.609374 0-102.480469 85.601563-165.914063 164.914063-165.914063 90.933593 0 164.914062 74.429687 164.914062 165.914063 0 71.195312-24.703125 96.617187-164.914062 268.609374zm0 0"/><path d="m194.898438 59.96875c-74.402344 0-134.929688 60.976562-134.929688 135.929688 0 74.398437 60.527344 134.929687 134.929688 134.929687 74.398437 0 134.929687-60.53125 134.929687-134.929687 0-74.953126-60.53125-135.929688-134.929687-135.929688zm0 240.875c-57.867188 0-104.945313-47.078125-104.945313-104.945312 0-58.417969 47.078125-105.945313 104.945313-105.945313 57.867187 0 104.945312 47.527344 104.945312 105.945313 0 57.867187-47.078125 104.945312-104.945312 104.945312zm0 0"/></svg>