<svg fill="#000" height="512pt" viewBox="0 0 512 512" width="512pt" xmlns="https://www.w3.org/2000/svg"><path d="m71.945312 440.03125 14.125 71.945312 91.648438-93.085937 27.539062-3.769531 50.742188 39.355468 50.742188-39.355468 28.105468 3.847656 91.082032 92.507812 14.125-71.945312 71.945312-14.121094-78.222656-77.011718 20.304687-8.285157-8.710937-63.625 39.355468-50.742187-39.355468-50.742188 8.710937-63.621094-59.453125-24.265624-24.265625-59.453126-63.917969 8.753907-50.445312-36.417969-50.445312 36.417969-63.917969-8.753907-24.265625 59.453126-59.453125 24.265624 8.710937 63.621094-39.355468 50.742188 39.355468 50.742187-8.710937 63.625 20.660156 8.433594-78.578125 77.363281zm169.070313-214.28125c0 24.785156-20.164063 44.949219-44.949219 44.949219s-44.949218-20.164063-44.949218-44.949219zm119.867187 74.914062h-29.96875v-104.882812c0-19.53125 12.527344-36.195312 29.96875-42.382812zm89.640626 106.273438-35.996094 7.066406-7.066406 36-33.777344-34.304687 20.945312-51.320313 8.984375-3.667968c57.921875 57.074218 44.980469 44.324218 46.910157 46.226562zm-385.328126-181.1875 32.832032-42.328125-7.269532-53.074219 49.597657-20.242187 20.242187-49.597657 52.773438 7.226563 42.628906-30.773437 42.628906 30.773437 52.773438-7.226563 20.242187 49.597657 49.597657 20.242187-7.269532 53.074219 32.832032 42.328125-32.832032 42.328125 7.269532 53.074219-30.394532 12.402344v-212.6875h-14.980468c-41.308594 0-74.917969 33.605468-74.917969 74.914062v134.851562h59.933593v37.125l-9.480468 23.230469-53.074219-7.265625-42.328125 32.828125-42.328125-32.828125-2.621094.359375v-84.925781c34.152344-6.960938 59.933594-37.230469 59.933594-73.410156v-104.878906h-29.96875v74.914062h-29.964844v-74.914062h-29.964843v74.914062h-29.96875v-74.914062h-29.964844v104.878906c0 36.179687 25.777344 66.449218 59.933594 73.410156v89.027344l-20.488282 2.804687-20.242187-49.597656-49.597657-20.242187 7.269532-53.070313zm52.175782 138.628906 21.089844 51.671875-33.921876 34.453125-7.066406-36-35.996094-7.066406c1.914063-1.890625-11 10.839844 47.265626-46.582031zm0 0"/></svg>