<svg fill="#000" height="512pt" viewBox="0 -31 512 512" width="512pt" xmlns="https://www.w3.org/2000/svg"><path d="m512 0h-512v450h512zm-30 60h-61v-30h61zm-91-30v30h-361v-30zm-150 225c0 24.8125-20.1875 45-45 45s-45-20.1875-45-45zm120 75h-30v-105c0-19.554688 12.539062-36.238281 30-42.429688zm30 90v-270h-15c-41.355469 0-75 33.644531-75 75v135h60v60h-150v-91.507812c34.191406-6.96875 60-37.273438 60-73.492188v-105h-30v75h-30v-75h-30v75h-30v-75h-30v105c0 36.21875 25.808594 66.523438 60 73.492188v91.507812h-151v-330h452v330zm0 0"/></svg>