<svg fill="#000" height="512pt" viewBox="0 0 512 512" width="512pt" xmlns="https://www.w3.org/2000/svg"><path d="m512 391v-391h-512v391h196v46c0 24.8125-20.1875 45-45 45h-45v30h300v-30h-45c-24.8125 0-45-20.1875-45-45v-46zm-30-361v271h-91v-241h-15c-41.457031 0-75 34.535156-75 76v135h60v30h-150v-61.507812c34.191406-6.96875 60-37.273438 60-73.492188v-106h-30v76h-30v-76h-30v76h-30v-76h-30v106c0 36.21875 25.808594 66.523438 60 73.492188v61.507812h-151v-271zm-121 211h-30v-105c0-19.589844 12.71875-36.789062 30-43.265625zm-120-75c0 24.8125-20.1875 45-45 45s-45-20.1875-45-45zm-211 165h452v30h-452zm256 106c0 16.871094 5.601562 32.457031 15.039062 45h-90.078124c9.4375-12.542969 15.039062-28.128906 15.039062-45v-46h60zm0 0"/></svg>