<svg fill="#000" height="511pt" viewBox="1 -31 511.999 511" width="511pt" xmlns="https://www.w3.org/2000/svg"><path d="m151.1875 60.390625h29.945312v29.945313h-29.945312zm0 0"/><path d="m241.027344 60.390625h29.945312v29.945313h-29.945312zm0 0"/><path d="m330.863281 60.390625h29.949219v29.945313h-29.949219zm0 0"/><path d="m196.109375 120.285156h29.945313v29.945313h-29.945313zm0 0"/><path d="m285.945312 120.285156h29.945313v29.945313h-29.945313zm0 0"/><path d="m390.757812 120.285156h29.945313v29.945313h-29.945313zm0 0"/><path d="m91.296875 120.285156h29.945313v29.945313h-29.945313zm0 0"/><path d="m467.109375 279.234375c8.921875 2.957031 17.347656 5.753906 25.714844 5.753906h19.175781l-18.71875-74.867187h18.257812v-44.917969c0-90.816406-74.335937-164.703125-165.703124-164.703125h-179.675782c-91.367187 0-165.699218 73.886719-165.699218 164.703125v44.917969h18.253906l-18.714844 74.867187h19.175781c8.476563 0 16.949219-2.828125 25.917969-5.820312.09375-.03125.191406-.0625.285156-.09375v50.832031h-44.917968v44.917969c0 41.28125 33.582031 74.863281 74.863281 74.863281h361.347656c41.28125 0 74.867187-33.582031 74.867187-74.863281v-44.917969h-44.917968v-50.835938c.164062.054688.324218.109376.488281.164063zm-436.703125-114.03125c0-74.304687 60.898438-134.757813 135.753906-134.757813h179.675782c74.859374 0 135.757812 60.453126 135.757812 134.757813v14.972656h-451.1875zm9.359375 84.183594 9.816406-39.265625h412.835938l9.816406 39.273437c-21.625-7.023437-52.6875-15.003906-89.035156 9.226563-22.242188 14.828125-50.984375 14.828125-73.226563 0-16.039062-10.691406-34.695312-16.25-53.972656-16.113282-19.234375-.140624-37.933594 5.421876-53.972656 16.113282-37.320313 24.882812-68.507813 2.023437-85.664063-7.238282l-.03125.042969c-31.105469-15.277343-57.53125-8.265625-76.566406-2.039062zm216.234375 106.722656-76.585938-57.441406c13.738282-2.035157 27.140626-7.078125 39.222657-15.132813 11.058593-7.371094 23.929687-11.195312 37.226562-11.082031h.273438c13.316406-.125 26.164062 3.710937 37.222656 11.082031 12.085937 8.054688 25.488281 13.097656 39.226563 15.132813zm-154.953125-78.78125 70.105469 52.578125h-95.824219v-57.6875c8.019531-.328125 16.503906.96875 25.71875 5.109375zm380.546875 82.523437v14.972657c0 24.769531-20.152344 44.917969-44.921875 44.917969h-361.347656c-24.765625 0-44.917969-20.148438-44.917969-44.917969v-14.972657h180.675781l44.917969 33.6875 44.917969-33.6875zm-44.921875-29.945312h-95.824219l70.070313-52.554688c9.203125-4.125 17.703125-5.414062 25.753906-5.085937zm0 0"/></svg>