<svg fill="#000" height="512pt" viewBox="0 0 512 512" width="512pt" xmlns="https://www.w3.org/2000/svg"><path d="m181 91h-181v421h331v-91h181v-421h-331zm90.394531 0h-60.394531v-45.800781zm29.605469 391h-271v-361h271zm181-91h-151v-30h121v-30h-121v-30h121v-30h-121v-30h121v-30h-121v-30h121v-30h-121v-52.449219l-90.394531-68.550781h241.394531zm0 0"/><path d="m256 241h-16.507812c-5.980469-29.34375-29.148438-52.511719-58.492188-58.492188v-31.507812h-30v31.507812c-29.34375 5.980469-52.511719 29.148438-58.492188 58.492188h-16.507812v30h180zm-90-30c19.554688 0 36.226562 12.542969 42.421875 30h-84.84375c6.195313-17.457031 22.867187-30 42.421875-30zm0 0"/><path d="m61 301h30v30h-30zm0 0"/><path d="m121 301h150v30h-150zm0 0"/><path d="m121 361h150v30h-150zm0 0"/><path d="m121 421h150v30h-150zm0 0"/><path d="m61 361h30v30h-30zm0 0"/><path d="m61 421h30v30h-30zm0 0"/><path d="m362 61h30v30h-30zm0 0"/><path d="m422 61h30v30h-30zm0 0"/></svg>