<svg fill="#000" height="512pt" viewBox="0 0 512 512" width="512pt" xmlns="https://www.w3.org/2000/svg"><path d="m432.453125 179.980469h-352.90625l-45 122h-34.546875v90h33.289062l30 120h385.421876l30-120h33.289062v-90h-34.546875zm-332 30h311.09375l33.933594 92h-378.960938zm324.835937 272h-338.578124l-22.5-90h122.519531l30 60h78.539062l30-60h122.519531zm-205.019531-90h71.460938l-15 30h-41.460938zm261.730469-30h-452v-30h452zm0 0"/><path d="m173.429688 60c-14.238282 9.492188-22.734376 25.371094-22.734376 42.480469s8.5 32.992187 22.734376 42.480469l16.640624-24.960938c-5.957031-3.972656-9.375-10.359375-9.375-17.519531 0-7.164063 3.414063-13.546875 9.375-17.519531 14.234376-9.492188 22.734376-25.371094 22.734376-42.480469s-8.5-32.992188-22.734376-42.480469l-16.640624 24.960938c5.957031 3.972656 9.375 10.359374 9.375 17.519531 0 7.160156-3.417969 13.546875-9.375 17.519531zm0 0"/><path d="m248.429688 60c-14.238282 9.492188-22.734376 25.371094-22.734376 42.480469s8.5 32.992187 22.734376 42.480469l16.640624-24.960938c-5.957031-3.972656-9.375-10.359375-9.375-17.519531 0-7.164063 3.414063-13.546875 9.375-17.519531 14.234376-9.492188 22.734376-25.371094 22.734376-42.480469s-8.5-32.992188-22.734376-42.480469l-16.640624 24.960938c5.957031 3.972656 9.375 10.359374 9.375 17.519531 0 7.160156-3.417969 13.546875-9.375 17.519531zm0 0"/><path d="m323.429688 60c-14.238282 9.492188-22.734376 25.371094-22.734376 42.480469s8.5 32.992187 22.734376 42.480469l16.640624-24.960938c-5.957031-3.972656-9.375-10.359375-9.375-17.519531 0-7.164063 3.414063-13.546875 9.375-17.519531 14.234376-9.492188 22.734376-25.371094 22.734376-42.480469s-8.5-32.992188-22.734376-42.480469l-16.640624 24.960938c5.957031 3.972656 9.375 10.359374 9.375 17.519531 0 7.160156-3.417969 13.546875-9.375 17.519531zm0 0"/></svg>