<svg fill="#000" height="512pt" viewBox="-61 0 512 512" width="512pt" xmlns="https://www.w3.org/2000/svg"><path d="m60 0v70.5l-60 91v350.5h390v-350.5l-60-91v-70.5zm240 30v30h-210v-30zm-240 151v249.789062l-30 30v-279.789062zm15 277.214844 23.789062 23.785156h-47.574218zm15-27.429688v-249.785156h30v279.785156zm-47.144531-279.785156 32.144531-48.75 32.144531 48.75zm107.144531 331v-301h210v301zm197.144531-331h-204.066406l-40.222656-61h204.066406zm0 0"/><path d="m180 392h150v-181h-150zm30-151h90v121h-90zm0 0"/><path d="m180 422h150v30h-150zm0 0"/></svg>