<svg fill="#000" height="512pt" viewBox="0 0 512 512" width="512pt" xmlns="https://www.w3.org/2000/svg"><path d="m347 91h-60c-36.992188 0-67.792969 26.925781-73.886719 62.203125-18.035156 5.867187-31.113281 22.828125-31.113281 42.796875s13.078125 36.929688 31.113281 42.796875c6.09375 35.277344 36.894531 62.203125 73.886719 62.203125h60c36.992188 0 67.792969-26.925781 73.886719-62.203125 18.035156-5.867187 31.113281-22.828125 31.113281-42.796875s-13.078125-36.929688-31.113281-42.796875c-6.09375-35.277344-36.894531-62.203125-73.886719-62.203125zm-60 30h60c19.554688 0 36.238281 12.539062 42.429688 30h-144.859376c6.191407-17.460938 22.875-30 42.429688-30zm60 150h-60c-19.554688 0-36.238281-12.550781-42.429688-30.011719h144.859376c-6.191407 17.460938-22.875 30.011719-42.429688 30.011719zm60-60h-180c-8.269531 0-15-6.730469-15-15s6.730469-15 15-15h180c8.269531 0 15 6.730469 15 15s-6.730469 15-15 15zm0 0"/><path d="m317 0h-317v512h332v-121.570312c100.542969-7.6875 180-91.953126 180-194.429688 0-108.074219-87.476562-196-195-196zm-103.558594 30c-13.425781 8.492188-25.753906 18.578125-36.71875 30h-146.722656v-30zm-65.851562 262.628906-65.695313 106.9375 118.875-46.984375c29.441407 21.855469 64.675781 34.992188 101.230469 37.832031v31.585938h-272v-332.011719h123.046875c-19.636719 30.582031-31.046875 66.988281-31.046875 106.011719 0 34.074219 8.820312 67.28125 25.589844 96.628906zm-117.589844 189.371094v-30h272v30zm287-121c-67.679688 0-107.734375-40.730469-111.109375-42.699219l-51.324219 20.285157 28.285156-46.039063c-2.105468-4.433594-30.851562-39.429687-30.851562-96.546875 0-91.53125 74.019531-166 165-166s165 74.46875 165 166c0 90.980469-74.019531 165-165 165zm0 0"/></svg>