<svg fill="#000" height="512pt" viewBox="0 0 512 512" width="512pt" xmlns="https://www.w3.org/2000/svg"><path d="m358.886719 147.796875c18.035156-5.867187 31.113281-22.828125 31.113281-42.796875s-13.078125-36.929688-31.113281-42.796875c-6.09375-35.277344-36.894531-62.203125-73.886719-62.203125h-90c-36.992188 0-67.792969 26.925781-73.886719 62.203125-18.035156 5.867187-31.113281 22.828125-31.113281 42.796875s13.078125 36.929688 31.113281 42.796875c2.0625 11.929687 6.933594 22.902344 13.925781 32.203125h-135.039062v302h62.578125c6.195313 17.457031 22.867187 30 42.421875 30s36.226562-12.542969 42.421875-30h217.160156c6.191407 17.457031 22.863281 30 42.417969 30s36.230469-12.542969 42.421875-30h62.578125v-106c0-20.902344-14.324219-38.519531-33.675781-43.554688l-21.472657-65.132812c31.75-8.726562 55.148438-37.832031 55.148438-72.3125v-15h-167.039062c6.996093-9.300781 11.863281-20.273438 13.925781-32.203125zm-163.886719-117.796875h90c19.554688 0 36.238281 12.539062 42.429688 30h-174.859376c6.191407-17.460938 22.875-30 42.429688-30zm-60 60h210c8.269531 0 15 6.730469 15 15s-6.730469 15-15 15h-210c-8.269531 0-15-6.730469-15-15s6.730469-15 15-15zm17.570312 59.988281h174.859376c-6.191407 17.460938-22.875 30.011719-42.429688 30.011719h-90c-19.554688 0-36.238281-12.550781-42.429688-30.011719zm-122.570312 178.433594c4.695312 1.664063 9.742188 2.578125 15 2.578125 11.515625 0 22.03125-4.355469 30-11.496094 7.96875 7.140625 18.484375 11.496094 30 11.496094s22.03125-4.355469 30-11.496094c7.96875 7.144532 18.484375 11.496094 30 11.496094s22.03125-4.355469 30-11.496094c7.96875 7.144532 18.484375 11.496094 30 11.496094 5.257812 0 10.304688-.914062 15-2.578125v32.578125h-210zm210-42.421875c0 8.269531-6.730469 15-15 15s-15-6.730469-15-15v-16h30zm-60 0c0 8.269531-6.730469 15-15 15s-15-6.730469-15-15v-16h30zm-60 0c0 8.269531-6.730469 15-15 15s-15-6.730469-15-15v-16h30zm-60 0c0 8.269531-6.730469 15-15 15s-15-6.730469-15-15v-16h30zm45 196c-8.269531 0-15-6.730469-15-15s6.730469-15 15-15 15 6.730469 15 15-6.730469 15-15 15zm224.992188-212h96.160156l20.109375 61h-116.265625c0-21.261719 0-42.34375-.003906-61zm77.007812 212c-8.269531 0-15-6.730469-15-15s6.730469-15 15-15 15 6.730469 15 15-6.730469 15-15 15zm75-91h-30v30h30v31h-32.578125c-6.195313-17.457031-22.867187-30-42.421875-30s-36.226562 12.542969-42.421875 30h-34.578125c0-18.921875 0-53.542969-.003906-91h137.003906c8.269531 0 15 6.730469 15 15zm-45-151h-137s.007812 174.5625.011719 212h-152.589844c-6.195313-17.457031-22.867187-30-42.421875-30s-36.226562 12.542969-42.421875 30h-32.578125v-61h240c0-19.042969 0-132.105469 0-151h-240v-30.011719h449.429688c-6.191407 17.460938-22.875 30.011719-42.429688 30.011719zm0 0"/></svg>