<svg fill="#000" height="512pt" viewBox="0 -16 512 512" width="512pt" xmlns="https://www.w3.org/2000/svg"><path d="m361 180h30v30h-30zm0 0"/><path d="m452 182.578125v-32.578125h30v-45c0-24.8125-20.1875-45-45-45h-81.730469l-30-60h-138.539062l-30 60h-81.730469c-24.8125 0-45 20.1875-45 45v45h30v32.578125c-4.695312-1.664063-9.742188-2.578125-15-2.578125h-45v90h15c24.8125 0 45 20.1875 45 45v90c0 41.355469 33.644531 75 75 75h241c41.460938 0 76-33.535156 76-75v-90c0-24.8125 20.1875-45 45-45h15v-90h-45c-5.257812 0-10.304688.914062-15 2.578125zm-246.730469-152.578125h101.460938l15 30h-131.460938zm-145.269531 75c0-8.269531 6.730469-15 15-15h362c8.269531 0 15 6.730469 15 15v15h-392zm-30 136.507812v-31.507812h15c8.269531 0 15 6.730469 15 15v30.054688c-8.726562-6.566407-18.917969-11.289063-30-13.546876zm346 208.492188h-241c-19.554688 0-36.226562-12.550781-42.421875-30.011719h326.679687c-6.476562 17.28125-23.667968 30.011719-43.257812 30.011719zm46-60h-332v-240h332zm60-148.492188c-11.082031 2.257813-21.273438 6.980469-30 13.546876v-30.054688c0-8.269531 6.730469-15 15-15h15zm0 0"/><path d="m256 180c-49.625 0-90 40.375-90 90s40.375 90 90 90 90-40.375 90-90-40.375-90-90-90zm58.101562 75h-43.101562v-43.101562c21.054688 5.4375 37.664062 22.046874 43.101562 43.101562zm-58.101562 75c-33.085938 0-60-26.914062-60-60 0-27.90625 19.152344-51.425781 45-58.101562v73.089843h73.101562c-6.675781 25.851563-30.195312 45.011719-58.101562 45.011719zm0 0"/></svg>