<svg fill="#000" height="512pt" viewBox="-28 0 511 512" width="512pt" xmlns="https://www.w3.org/2000/svg"><path d="m390.910156 512 64.988282-391h-17.699219c-15.652344 0-31.03125 3.671875-45 10.554688v-71.554688h-60v-30h-60v-30h-90v30h-60v30h-60v71.554688c-13.96875-6.882813-29.347657-10.554688-45-10.554688h-17.699219l64.984375 391zm-27.710937-422v63.808594c-25.078125 26.734375-27.101563 56.265625-27.707031 58.191406h-2.292969v-122zm-60-30v152h-30v-152zm-60-30v182h-30v-182zm-60 30v152h-30v-152zm-60 30v122h-2.292969c-.601562-1.910156-2.636719-31.460938-27.707031-58.191406v-63.808594zm-32.464844 123.445312 4.757813 28.554688h265.414062l4.757812-28.554688c4.898438-29.371093 26.976563-52.78125 54.441407-60.074218l-54.621094 328.628906h-274.574219l-54.617187-328.628906c27.464843 7.292968 49.546875 30.703125 54.441406 60.074218zm0 0"/><path d="m228.199219 452c57.898437 0 105-40.375 105-90s-47.101563-90-105-90c-57.898438 0-105 40.375-105 90s47.101562 90 105 90zm0-150c41.355469 0 75 26.914062 75 60s-33.644531 60-75 60-75-26.914062-75-60 33.644531-60 75-60zm0 0"/></svg>