<svg fill="#000" height="512pt" viewBox="0 0 512 512" width="512pt" xmlns="https://www.w3.org/2000/svg"><path d="m62.378906 512h177.242188l16.378906-169.851562 16.378906 169.851562h177.242188l23.335937-242h39.042969v-110.296875l-128.828125-159.703125h-254.34375l-128.828125 159.703125v110.296875h39.042969zm222.589844-182h152.0625l-8.871094 92h-134.320312zm-210 0h152.0625l-8.871094 92h-134.320312zm-2.894531-30-2.890625-30h163.632812l-2.890625 30zm17.546875 182-2.890625-30h128.539062l-2.890625 30zm210 0-2.890625-30h128.539062l-2.890625 30zm140.304687-182h-157.851562l-2.890625-30h163.632812zm-409.925781-129.703125 113.171875-140.296875h225.65625l113.171875 140.296875v69.703125h-452zm0 0"/><path d="m316 60h-120c-24.8125 0-45 20.1875-45 45s20.1875 45 45 45h120c24.8125 0 45-20.1875 45-45s-20.1875-45-45-45zm0 60h-120c-8.269531 0-15-6.730469-15-15s6.730469-15 15-15h120c8.269531 0 15 6.730469 15 15s-6.730469 15-15 15zm0 0"/><path d="m91 180h30v30h-30zm0 0"/><path d="m151 180h30v30h-30zm0 0"/><path d="m211 180h30v30h-30zm0 0"/><path d="m271 180h30v30h-30zm0 0"/><path d="m331 180h30v30h-30zm0 0"/><path d="m391 180h30v30h-30zm0 0"/></svg>