<svg fill="#000" height="512pt" viewBox="0 0 512 511" width="512pt" xmlns="https://www.w3.org/2000/svg"><path d="m282.472656 180.253906c3.875-15.402344 1.222656-32.023437-7.914062-45.671875l235.121094 15.675781 1.992187-29.898437-252.226563-16.816406c.644532-6.234375 3.382813-12.011719 7.875-16.503907 11.128907-11.128906 16.984376-26.203124 16.769532-41.46875l227.582031-15.171874-1.992187-29.898438-449.46875 29.964844 1.996093 29.898437 70.480469-4.699219c-1.34375 3.785157-3.507812 7.28125-6.414062 10.1875-7.757813 7.753907-13 17.347657-15.363282 27.789063l-48.703125-3.246094-1.996093 29.898438 51.933593 3.460937c2.734375 8.664063 7.519531 16.605469 14.128907 23.210938 9.058593 9.058594 10.511718 22.742187 4.238281 33.289062h-63.378907l-67.132812 127.875 26.53125 13.929688 43.222656-82.332032 54.066406 272.132813h265.3125l53.980469-271.695313 42.265625 81.808594 26.621094-13.757812-66.113281-127.960938zm-178.753906 76.65625 54.875 73.167969h195.765625l54.875-73.167969-32.792969 165.058594h-239.929687zm303.078125-46.691406-67.417969 89.894531h-165.804687l-67.417969-89.894531zm-160.664063-63.253906c9.058594 9.058594 10.511719 22.742187 4.238282 33.289062h-27.824219c4.28125-17.023437.578125-35.535156-11.023437-49.875l23.804687 1.585938c2.730469 5.480468 6.347656 10.546875 10.804687 15zm0-81.117188c-9.679687 9.679688-15.460937 22.214844-16.585937 35.703125l-29.328125-1.957031c1.203125-4.710938 3.644531-9.03125 7.171875-12.554688 10.097656-10.101562 15.914063-23.542968 16.6875-37.46875l30.03125-2c-.28125 6.761719-3.035156 13.335938-7.976563 18.277344zm-98.671874 21.191406c9.097656-9.101562 14.753906-20.9375 16.332031-33.449218l29.929687-1.996094c-1.019531 5.320312-3.585937 10.320312-7.519531 14.253906-8.722656 8.726563-14.285156 19.765625-16.121094 31.734375l-28.46875-1.894531c1.355469-3.191406 3.324219-6.125 5.847657-8.648438zm.335937 39.09375 25.742187 1.714844c2.847657 7.070313 7.109376 13.566406 12.664063 19.117188 9.058594 9.058594 10.511719 22.742187 4.238281 33.289062h-27.824218c4.71875-18.757812-.261719-39.324218-14.820313-54.121094zm.621094 355.761719-5.953125-29.960937h228.023437l-5.953125 29.960937zm0 0"/><path d="m211.03125 240.183594h89.894531v29.964844h-89.894531zm0 0"/></svg>