<svg fill="#000" height="512pt" viewBox="-61 0 512 512" width="512pt" xmlns="https://www.w3.org/2000/svg"><path d="m231.972656 0-20 30h-146.242187l-30 60h-35.730469v90h33.507812l27.691407 332h267.601562l27.695313-332h33.503906v-90h-35.730469l-30-60h-24.269531v-30zm-163.355468 240h141.382812v39.785156l-30 30v82.214844h90v-82.214844l-30-30v-39.785156h81.382812l-15.179687 182h-222.40625zm171.382812 82.214844v39.785156h-30v-39.785156l15-15zm-30-112.214844h-143.886719l-2.503906-30h146.390625zm-121.199219 272-2.5-30h217.402344l-2.503906 30zm235.085938-272h-83.886719v-30h86.390625zm36.113281-60h-330v-30h330zm-54.269531-90 15 30h-251.460938l15-30h143.757813l20-30h21.972656v30zm0 0"/></svg>