<svg fill="#000" height="512pt" viewBox="-61 0 512 512" width="512pt" xmlns="https://www.w3.org/2000/svg"><path d="m0 512h390v-267.480469c-72.070312-215.132812 12.433594 36-60-179.082031v-65.4375h-270v72.566406l-60 180zm120-51.214844-30.011719-30v-263.347656l30.011719 89.996094zm-45-2.570312 23.789062 23.785156h-47.574218zm285-209.242188v233.027344h-210v-229.433594l-54.1875-162.566406h30.796875c18.597656 55.359375 48.371094 144.011719 53.390625 159.042969v134.171875l45-45 30 30 30-30 45 45v-130.648438l-54.1875-162.566406h30.804688c20.730468 61.554688 48.734374 144.816406 53.382812 158.972656zm-201.742188-158.972656h85.929688l55.8125 167.433594v53.351562l-15-15-30 30-30-30-15 15v-66.261718c-4.445312-15.570313-51.707031-154.417969-51.742188-154.523438zm-8.257812-30v-30h90v30zm150 0h-30v-30h30zm-210-30h30v30h-30zm-30 137.433594v263.351562l-30 30v-203.351562zm0 0"/><path d="m195 422h120v30h-120zm0 0"/></svg>