<svg fill="#000" height="512pt" viewBox="0 0 512 512" width="512pt" xmlns="https://www.w3.org/2000/svg"><path d="m256 0c-141.160156 0-256 114.394531-256 255 0 140.875 114.957031 257 256 257 140.882812 0 256-115.957031 256-257 0-140.605469-114.839844-255-256-255zm0 482c-84.539062 0-158.375-46.875-197.128906-116.101562 18.351562-5.167969 38.28125-2.203126 54.558594 8.648437 32.390624 21.59375 74.25 21.59375 106.640624 0 22.28125-14.855469 51.078126-14.855469 73.359376 0 32.386718 21.589844 74.246093 21.597656 106.640624 0 15.828126-10.550781 35.253907-13.640625 53.25-8.988281-38.703124 69.410156-112.640624 116.441406-197.320312 116.441406zm0-151c-41.355469 0-75-34.09375-75-76 0-41.355469 33.644531-75 75-75s75 33.644531 75 75c0 41.90625-33.644531 76-75 76zm210.316406 7.109375c-27.648437-8.929687-58.261718-4.9375-82.886718 11.476563-22.285157 14.855468-51.078126 14.855468-73.359376 0-1.03125-.6875-2.074218-1.351563-3.125-1.996094 8.449219-4.789063 16.308594-10.800782 23.351563-17.953125 19.800781-20.101563 30.703125-46.609375 30.703125-74.636719 0-57.898438-47.101562-105-105-105s-105 47.101562-105 105c0 28.027344 10.902344 54.535156 30.703125 74.636719 7.265625 7.378906 15.394531 13.539062 24.144531 18.398437-.808594.507813-1.621094 1.015625-2.417968 1.550782-22.285157 14.851562-51.078126 14.855468-73.359376 0-25.117187-16.746094-56.21875-20.570313-84.210937-11.046876-10.230469-25.867187-15.859375-54.054687-15.859375-83.539062 0-124.066406 101.382812-225 226-225s226 100.933594 226 225c0 29.320312-5.5625 57.359375-15.683594 83.109375zm0 0"/><path d="m391 180h30v30h-30zm0 0"/><path d="m211 60h30v30h-30zm0 0"/><path d="m91 240h30v30h-30zm0 0"/><path d="m112.703125 178.421875-13.414063-26.832031 59.996094-30 13.417969 26.832031zm0 0"/><path d="m350.394531 145.609375-45-45 21.214844-21.210937 45 45zm0 0"/><path d="m440.746094 299.214844-45.003906 15-9.484376-28.460938 45-15zm0 0"/></svg>