<svg fill="#000" height="512pt" viewBox="0 -76 512 512" width="512pt" xmlns="https://www.w3.org/2000/svg"><path d="m450.71875 91.28125c-6.976562-37.570312-41.917969-65.105469-81.757812-60.847656-17.359376-19.351563-42.054688-30.433594-67.960938-30.433594-17.953125 0-34.710938 5.25-48.785156 14.324219-14.445313-9.296875-31.359375-14.324219-48.714844-14.324219-38.519531 0-72.351562 24.582031-84.863281 60.015625-49 .734375-88.636719 40.8125-88.636719 89.984375 0 4.78125.390625 9.535156 1.132812 14.222656-18.839843 13.636719-31.132812 35.792969-31.132812 60.777344 0 10.214844 2.058594 19.953125 5.773438 28.835938-3.230469 18.816406-5.199219 37.507812-5.664063 53.800781h-.109375v7.363281c0 24.8125 20.1875 45 45 45h422c24.8125 0 45-20.1875 45-45 0-32.984375-7.113281-66.742188-20.320312-98.652344 13.027343-13.8125 20.320312-31.980468 20.320312-51.347656 0-36.667969-26.457031-67.253906-61.28125-73.71875zm31.28125 73.71875c0 7.410156-1.796875 14.523438-5.113281 20.859375-13.507813-24.074219-30.4375-46.125-49.8125-64.761719 28.296875-6.335937 54.925781 15.230469 54.925781 43.902344zm-61.945312-73.078125c-6.671876 1.535156-13.082032 3.980469-19.105469 7.300781-2.96875-2.148437-5.976563-4.21875-9.023438-6.207031.3125-10.894531-1.371093-21.691406-4.890625-31.875 15.742188 3.601563 28.359375 15.46875 33.019532 30.78125zm-59.835938-16.085937c-24.066406-10.503907-48.964844-15.835938-74.21875-15.835938-13.214844 0-26.328125 1.460938-39.277344 4.351562 9.621094-20.382812 30.359375-34.351562 54.277344-34.351562 28.570312 0 52.71875 19.894531 59.21875 45.835938zm-156.71875-45.835938c8.933594 0 17.695312 1.996094 25.652344 5.757812-8.648438 11.449219-14.632813 25.046876-17.003906 39.914063-8.976563 3.898437-17.152344 8.160156-25.304688 13.078125-10.328125-10.9375-23.410156-19.195312-37.785156-23.992188 9.636718-20.761718 30.703125-34.757812 54.441406-34.757812zm-143.5 120c0-33.085938 26.914062-60 60-60 15.636719 0 30.714844 5.996094 41.871094 16.207031-19.328125 15.472657-36.066406 33.738281-50.109375 53.417969-11.132813-6.269531-23.753907-9.625-36.761719-9.625-5.125 0-10.132812.519531-14.972656 1.503906-.011719-.5-.027344-1-.027344-1.503906zm15 30c7.242188 0 14.28125 1.738281 20.597656 4.992188-14.953125 26.433593-25.53125 54.929687-31.085937 83.761718-19.769531-4.742187-34.511719-22.554687-34.511719-43.753906 0-24.8125 20.1875-45 45-45zm-45 135c0-8.632812.5625-18.5 1.617188-28.878906 8.519531 6.0625 18.34375 10.398437 28.976562 12.476562-.210938 3.015625-.378906 6.03125-.476562 9.039063h-.117188v7.363281c0 8.269531-6.730469 15-15 15s-15-6.730469-15-15zm437 15h-379.578125c1.664063-4.695312 2.578125-9.742188 2.578125-15 0-104.050781 85.617188-225 196-225s196 120.949219 196 225c0 8.269531-6.730469 15-15 15zm0 0"/><path d="m196 306.21875-21.214844-21.214844 21.214844-21.214844 21.210938 21.214844zm0 0"/><path d="m286 306.21875-21.214844-21.214844 21.214844-21.210937 21.210938 21.210937zm0 0"/><path d="m377 306.21875-21.214844-21.214844 21.214844-21.210937 21.214844 21.210937zm0 0"/></svg>