<svg fill="#000" height="512pt" viewBox="0 0 512 512.00025" width="512pt" xmlns="https://www.w3.org/2000/svg"><path d="m21.210938 512 119.957031-119.957031c28.992187 19.171875 68.679687 16.160156 94.378906-9.539063 17.320313-17.320312 24.375-41.070312 21.179687-63.632812 23.46875 3.316406 46.804688-4.351563 63.660157-21.210938 17.296875-17.292968 24.425781-40.808594 21.214843-63.625 22.816407 3.210938 46.332032-3.921875 63.628907-21.214844 17.328125-17.328124 24.382812-41.09375 21.171875-63.667968 23.179687 3.296875 46.753906-4.257813 63.667968-21.171875 29.238282-29.238281 29.238282-76.8125 0-106.050781-29.238281-29.238282-76.8125-29.238282-106.050781 0-17.316406 17.316406-24.375 41.066406-21.175781 63.628906-23.472656-3.3125-46.808594 4.355468-63.664062 21.210937-17.316407 17.316407-24.375 41.066407-21.175782 63.628907-23.472656-3.3125-46.808594 4.355468-63.664062 21.210937-16.835938 16.832031-24.527344 40.15625-21.210938 63.664063-22.5625-3.195313-46.3125 3.859374-63.632812 21.175781-25.605469 25.609375-28.785156 65.28125-9.535156 94.382812l-119.960938 119.957031zm384.019531-468.859375c17.539062-17.542969 46.082031-17.546875 63.628906 0 17.542969 17.542969 17.542969 46.085937 0 63.628906s-46.085937 17.542969-63.628906 0-17.542969-46.085937 0-63.628906zm-84.839844 84.839844c17.582031-17.582031 46.042969-17.585938 63.628906 0 17.542969 17.542969 17.542969 46.085937 0 63.628906-17.582031 17.585937-46.042969 17.585937-63.628906 0-17.542969-17.542969-17.542969-46.085937 0-63.628906zm-84.839844 84.839843c17.578125-17.582031 46.042969-17.585937 63.628907 0 17.585937 17.585938 17.585937 46.046876 0 63.632813-17.585938 17.582031-46.046876 17.585937-63.632813 0-17.582031-17.582031-17.585937-46.046875.003906-63.632813zm-84.84375 84.84375c17.542969-17.542968 46.085938-17.546874 63.632813 0 17.539062 17.542969 17.539062 46.085938 0 63.628907-17.546875 17.542969-46.089844 17.542969-63.632813 0s-17.542969-46.089844 0-63.628907zm0 0"/></svg>