<svg fill="#000" height="512pt" viewBox="0 -31 512 512" width="512pt" xmlns="https://www.w3.org/2000/svg"><path d="m407 210h-61.039062c9.4375-12.542969 15.039062-28.128906 15.039062-45v-17.578125c4.695312 1.664063 9.742188 2.578125 15 2.578125 24.8125 0 45-20.1875 45-45 0-57.898438-47.101562-105-105-105h-211c-57.898438 0-105 47.101562-105 105 0 24.8125 20.1875 45 45 45 5.257812 0 10.304688-.914062 15-2.578125v17.578125c0 37.445312 27.585938 68.566406 63.5 74.117188-20.015625 19.128906-32.5 46.074218-32.5 75.882812 0 24.8125 20.1875 45 45 45 5.257812 0 10.304688-.914062 15-2.578125v17.578125c0 41.355469 33.644531 75 75 75h151c41.355469 0 75-33.644531 75-75v-17.578125c4.695312 1.664063 9.742188 2.578125 15 2.578125 24.8125 0 45-20.1875 45-45 0-57.898438-47.101562-105-105-105zm-211-180h30v180h-30zm90 210h30v180h-30zm-30-30v-120h60c8.269531 0 15 6.730469 15 15v60c0 24.8125-20.1875 45-45 45zm135-105c0 8.269531-6.730469 15-15 15s-15-6.730469-15-15c0-24.8125-20.1875-45-45-45h-60v-30h60c41.355469 0 75 33.644531 75 75zm-346 15c-8.269531 0-15-6.730469-15-15 0-41.355469 33.644531-75 75-75h61v30h-61c-24.8125 0-45 20.1875-45 45 0 8.269531-6.730469 15-15 15zm45 45v-60c0-8.269531 6.730469-15 15-15h61v120h-31c-24.8125 0-45-20.1875-45-45zm46 165c-8.269531 0-15-6.730469-15-15 0-41.355469 33.644531-75 75-75h60v30h-60c-24.8125 0-45 20.1875-45 45 0 8.269531-6.730469 15-15 15zm45 45v-60c0-8.269531 6.730469-15 15-15h60v120h-30c-24.8125 0-45-20.1875-45-45zm241 0c0 24.8125-20.1875 45-45 45h-31v-120h61c8.269531 0 15 6.730469 15 15zm45-45c-8.269531 0-15-6.730469-15-15 0-24.8125-20.1875-45-45-45h-61v-30h61c41.355469 0 75 33.644531 75 75 0 8.269531-6.730469 15-15 15zm0 0"/></svg>