<svg fill="#000" height="512pt" viewBox="0 0 512 512.00038" width="512pt" xmlns="https://www.w3.org/2000/svg"><path d="m297.503906 366.238281-151.742187-151.738281 53.035156-74.25-115.054687-115.058594-53.035157 53.039063c-40.941406 40.9375-40.941406 107.554687 0 148.496093l254.566407 254.570313c40.941406 40.9375 107.554687 40.941406 148.5 0l53.03125-53.035156-115.054688-115.058594zm-137.890625-222.746093-17.679687 24.75-79.40625-79.40625 21.214844-21.214844zm146.875 316.589843-254.570312-254.570312c-25.609375-25.609375-28.789063-65.289063-9.539063-94.394531l81.875 81.875-17.675781 24.75 187.679687 187.683593 24.75-17.679687 81.875 81.875c-29.105468 19.25-68.785156 16.070312-94.394531-9.539063zm116.675781-10.609375-79.40625-79.40625 24.75-17.675781 75.871094 75.871094zm0 0"/><path d="m281.503906 39.574219c-41.363281 41.363281-51.21875 105.035156-24.871094 156.738281l-15.765624 74.824219 74.820312-15.765625c52.015625 26.5 115.636719 16.230468 156.738281-24.871094 52.640625-52.640625 52.640625-138.289062 0-190.925781-52.757812-52.761719-138.15625-52.769531-190.921875 0zm169.710938 169.710937c-56.609375 56.605469-130.710938 14.449219-130.8125 14.429688l-40.691406 8.574218 8.574218-40.691406c-.019531-.097656-45.246094-71.132812 14.429688-130.808594 41.039062-41.035156 107.457031-41.042968 148.5 0 40.941406 40.9375 40.941406 107.554688 0 148.496094zm0 0"/><path d="m410.117188 60.203125-43.386719 27.25-50.140625-10.554687 12.507812 49.683593-25.53125 44.421875 51.121094 3.460938 34.355469 38.007812 19.085937-47.546875 46.765625-20.933593-39.320312-32.84375zm-25.3125 82.292969-5.710938 14.230468-10.285156-11.378906-15.296875-1.03125 7.640625-13.296875-3.742188-14.871093 15.003906 3.160156 12.988282-8.15625 1.628906 15.246094 11.773438 9.832031zm0 0"/></svg>