<svg fill="#000" height="512pt" viewBox="0 0 512 512" width="512pt" xmlns="https://www.w3.org/2000/svg"><path d="m481.542969 241.769531v-151.855469h30.457031l-35.214844-89.914062h-200.28125l-35.214844 89.914062h30.453126v151.855469h89.914062v14.988281c0 24.789063 20.167969 44.957032 44.960938 44.957032h59.941406c8.261718 0 14.984375 6.722656 14.984375 14.984375 0 8.265625-6.722657 14.988281-14.984375 14.988281h-224.789063v-149.859375h-241.769531v329.6875h241.769531v-149.859375h224.789063c24.789062 0 44.957031-20.167969 44.957031-44.957031 0-24.789063-20.167969-44.957031-44.957031-44.957031h-59.941406c-8.265626 0-14.988282-6.722657-14.988282-14.984376v-14.988281zm-269.742188-29.96875v29.96875h-181.828125v-29.96875zm-181.828125 269.742188v-29.96875h181.828125v29.96875zm181.828125-59.941407h-181.828125v-149.859374h181.828125v59.945312h-48.535156c-6.1875-17.445312-22.84375-29.972656-42.378906-29.972656-24.789063 0-44.957031 20.167968-44.957031 44.957031s20.167968 44.957031 44.957031 44.957031c19.535156 0 36.191406-12.527344 42.378906-29.972656h48.535156zm-75.929687-74.929687c0 8.261719-6.722656 14.984375-14.984375 14.984375-8.265625 0-14.988281-6.722656-14.988281-14.984375s6.722656-14.984375 14.988281-14.984375c8.261719 0 14.984375 6.722656 14.984375 14.984375zm255.757812-134.871094h-29.972656v-61.941406h29.972656zm-94.675781-181.828125h159.378906l11.742188 29.96875h-182.859375zm4.761719 59.941406h149.859375v121.886719h-29.972657v-91.914062h-89.914062v91.914062h-29.972656zm0 0"/></svg>