<svg fill="#000" height="512pt" viewBox="0 0 512 512" width="512pt" xmlns="https://www.w3.org/2000/svg"><path d="m60 180h-60v332h451v-181h61v-331h-452zm361 302h-391v-272h391zm30-181v-121h-361v-30h392v151zm-361-181v-30h392v30zm392-90v30h-392v-30zm0 0"/><path d="m346 361c-11.515625 0-22.03125 4.355469-30 11.496094-7.96875-7.140625-18.484375-11.496094-30-11.496094-24.8125 0-45 20.1875-45 45s20.1875 45 45 45c11.515625 0 22.03125-4.355469 30-11.496094 7.96875 7.140625 18.484375 11.496094 30 11.496094 24.8125 0 45-20.1875 45-45s-20.1875-45-45-45zm-60 60c-8.269531 0-15-6.730469-15-15s6.730469-15 15-15 15 6.730469 15 15-6.730469 15-15 15zm60 0c-8.269531 0-15-6.730469-15-15s6.730469-15 15-15 15 6.730469 15 15-6.730469 15-15 15zm0 0"/><path d="m60 241h60v30h-60zm0 0"/><path d="m150 241h61v30h-61zm0 0"/><path d="m241 241h60v30h-60zm0 0"/><path d="m331 241h60v30h-60zm0 0"/><path d="m60 391h30v30h-30zm0 0"/><path d="m120 391h30v30h-30zm0 0"/><path d="m180 391h30v30h-30zm0 0"/><path d="m60 301h181v30h-181zm0 0"/></svg>