<svg fill="#000" height="512pt" viewBox="0 0 512 512" width="512pt" xmlns="https://www.w3.org/2000/svg"><path d="m383.304688 180.746094c15.117187-52.972656 51.363281-180.621094 51.398437-180.746094-30.230469 13.507812-27 11.855469-51.761719 23.210938-55.710937 25.550781-79.652344 35.03125-113.070312 12.753906-83.871094-55.914063-169.355469 9.519531-178.367188 12.644531.027344.101563 33.117188 116.890625 37.46875 132.136719h-62.269531l-4.40625 7.027344c-1.953125 3.109374-47.945313 76.640624-59.410156 116.777343l-2.886719 10.09375v197.101563h512v-198.515625l-65.695312-132.484375zm-256.441407-117.519532c49.777344-25.777343 90.152344-26.441406 126.367188-2.300781 46.503906 31.003907 84.394531 15.964844 135.03125-7.15625-7.058594 24.921875-21.648438 76.214844-53.578125 187.976563h-37.980469l33.550781-102.328125-28.507812-9.347657-36.613282 111.675782h-18.265624l-36.613282-111.671875-28.507812 9.347656 33.550781 102.324219h-37.914063c-3.976562-14.191406-46.878906-165.671875-50.519531-178.519532zm-43.476562 147.519532h54.105469c3.375 11.933594 6.378906 22.609375 8.734374 31h-25.226562v30h270v-30h-25.113281c3.121093-10.925782 6.066406-21.25 8.851562-31h52.957031l45.125 91h-437.316406c11.660156-30.242188 37.597656-74.074219 47.882813-91zm-53.386719 271v-150h452v150zm0 0"/><path d="m256 361.746094c-52.265625 0-105 13.914062-105 45 0 31.085937 52.734375 45 105 45s105-13.914063 105-45c0-31.085938-52.734375-45-105-45zm0 60c-41.460938 0-66.597656-9.457032-73.640625-15 7.042969-5.546875 32.179687-15 73.640625-15s66.597656 9.453125 73.640625 15c-7.042969 5.542968-32.179687 15-73.640625 15zm0 0"/></svg>