<svg fill="#000" height="512pt" viewBox="0 -31 512 512" width="512pt" xmlns="https://www.w3.org/2000/svg"><path d="m62.480469 0c-2.738281 15.0625-59.878907 329.335938-62.480469 343.648438v106.351562h512v-106.351562l-62.480469-343.648438zm25.039062 30h336.960938l54.546875 300h-208.027344v15c0 8.269531-6.730469 15-15 15s-15-6.730469-15-15v-15h-208.027344zm-57.519531 390v-60h183.570312c6.191407 17.460938 22.871094 30 42.429688 30s36.238281-12.539062 42.429688-30h183.570312v60zm0 0"/><path d="m252.660156 301.191406c77.789063 0 135.539063-36.546875 145.246094-40.375l-141.90625-212.859375-141.90625 212.859375c37.789062 18.292969 73.339844 40.375 138.566406 40.375zm-71.660156-61.191406c15.53125 0 28.34375 11.863281 29.851562 27.007812-17.582031-3.527343-34.921874-9.289062-51.988281-17.265624 5.550781-6.070313 13.488281-9.742188 22.136719-9.742188zm108.488281-87.726562 32.660157 48.988281c-5.546876 5.511719-13.113282 8.738281-21.148438 8.738281-16.542969 0-30-13.457031-30-30 0-12.441406 7.53125-23.207031 18.488281-27.726562zm-16.808593-25.210938c-19.003907 10.140625-31.679688 30.132812-31.679688 52.9375 0 33.085938 26.914062 60 60 60 14.0625 0 27.402344-4.925781 37.949219-13.535156l14.902343 22.351562c-38.410156 16.777344-76.117187 24.121094-112.867187 22.046875.003906-.289062.015625-.574219.015625-.863281 0-32.085938-25.316406-58.367188-57.023438-59.921875l72.023438-108.035156zm0 0"/></svg>