<svg fill="#000" height="512pt" viewBox="-31 0 512 512" width="512pt" xmlns="https://www.w3.org/2000/svg"><path d="m165 512c24.8125 0 45-20.1875 45-45v-91c0-9.261719-2.8125-17.875-7.628906-25.039062 4.738281-5.308594 7.628906-12.300782 7.628906-19.960938v-30c0-5.460938-1.476562-10.585938-4.035156-15 2.5625-4.414062 4.035156-9.539062 4.035156-15v-30c0-7.660156-2.890625-14.652344-7.628906-19.960938 4.816406-7.164062 7.628906-15.777343 7.628906-25.039062v-66l-45-60v-70h-120v70l-45 60v66c0 9.261719 2.8125 17.875 7.628906 25.039062-4.738281 5.308594-7.628906 12.300782-7.628906 19.960938v30c0 5.460938 1.476562 10.585938 4.035156 15-2.558594 4.414062-4.035156 9.539062-4.035156 15v30c0 7.660156 2.890625 14.652344 7.628906 19.960938-4.816406 7.164062-7.628906 15.777343-7.628906 25.039062v91c0 24.8125 20.1875 45 45 45zm-135-181v-30h150l.019531 30s-.007812 0-.019531 0c-22.308594 0-130.148438 0-150 0zm0-90h150l.019531 30s-.007812 0-.019531 0h-150zm105-211v30h-60v-30zm-105 110 37.5-50h75l37.5 50v56c0 8.269531-6.730469 15-15 15h-120c-8.269531 0-15-6.730469-15-15zm0 327v-91c0-8.269531 6.730469-15 15-15h120c8.269531 0 15 6.730469 15 15v91c0 8.269531-6.730469 15-15 15h-17.578125c1.664063-4.695312 2.578125-9.742188 2.578125-15v-46h-30v46c0 8.269531-6.730469 15-15 15s-15-6.730469-15-15v-46h-30v46c0 5.257812.914062 10.304688 2.578125 15h-17.578125c-8.269531 0-15-6.730469-15-15zm0 0"/><path d="m405 0h-120v70l-45 60v66c0 9.261719 2.8125 17.875 7.628906 25.039062-4.738281 5.308594-7.628906 12.300782-7.628906 19.960938v30c0 5.460938 1.476562 10.585938 4.035156 15-2.5625 4.414062-4.035156 9.539062-4.035156 15v30c0 7.660156 2.890625 14.652344 7.628906 19.960938-4.816406 7.164062-7.628906 15.777343-7.628906 25.039062v91c0 24.8125 20.1875 45 45 45h120c24.8125 0 45-20.1875 45-45v-91c0-9.261719-2.8125-17.875-7.628906-25.039062 4.738281-5.308594 7.628906-12.300782 7.628906-19.960938v-30c0-5.460938-1.476562-10.585938-4.035156-15 2.5625-4.414062 4.035156-9.539062 4.035156-15v-30c0-7.660156-2.890625-14.652344-7.628906-19.960938 4.816406-7.164062 7.628906-15.777343 7.628906-25.039062v-66l-45-60zm-30 30v30h-60v-30zm45 211 .019531 30s-.007812 0-.019531 0h-150v-30zm.019531 90s-.007812 0-.019531 0c-11.140625 0-128.304688 0-150 0v-30h150zm-.019531 136c0 8.269531-6.730469 15-15 15h-17.578125c1.664063-4.695312 2.578125-9.742188 2.578125-15v-46h-30v46c0 8.269531-6.730469 15-15 15s-15-6.730469-15-15v-46h-30v46c0 5.257812.914062 10.304688 2.578125 15h-17.578125c-8.269531 0-15-6.730469-15-15v-91c0-8.269531 6.730469-15 15-15h120c8.269531 0 15 6.730469 15 15zm0-327v56c0 8.269531-6.730469 15-15 15h-120c-8.269531 0-15-6.730469-15-15v-56l37.5-50h75zm0 0"/></svg>