<svg fill="#000" height="512pt" viewBox="-91 0 512 512" width="512pt" xmlns="https://www.w3.org/2000/svg"><path d="m210 0h-15v15c0 8.269531-6.730469 15-15 15h-75c-24.8125 0-45 20.1875-45 45 0 7.378906 1.796875 14.34375 4.960938 20.496094-20.613282 9.507812-34.960938 30.355468-34.960938 54.503906 0 12.347656 3.75 23.832031 10.171875 33.382812-23.367187 8.207032-40.171875 30.480469-40.171875 56.617188 0 29.09375 20.816406 53.40625 48.332031 58.851562l60.324219 213.148438h112.6875l60.324219-213.148438c27.515625-5.445312 48.332031-29.757812 48.332031-58.851562 0-26.136719-16.804688-48.410156-40.171875-56.617188 6.421875-9.550781 10.171875-21.035156 10.171875-33.382812 0-26.136719-16.804688-48.410156-40.171875-56.617188 6.417969-9.550781 10.171875-21.035156 10.171875-33.382812 0-33.085938-26.914062-60-60-60zm-11.34375 482h-67.3125l-51.511719-182h40.167969v15c0 24.8125 20.1875 45 45 45s45-20.1875 45-45v-15h40.164062zm71.34375-332c0 16.542969-13.457031 30-30 30h-90v30h120.003906c16.539063 0 29.996094 13.457031 29.996094 30s-13.457031 30-30 30h-60v-30h-30v75c0 8.269531-6.730469 15-15 15s-15-6.730469-15-15v-75h-30v30h-60c-16.542969 0-30-13.457031-30-30s13.457031-30 29.996094-30h60.003906v-30h-30c-16.542969 0-30-13.457031-30-30s13.457031-30 30-30h90v-30h-75c-8.269531 0-15-6.730469-15-15s6.730469-15 15-15h75c18.683594 0 34.742188-11.445312 41.539062-27.691406 10.828126 4.53125 18.460938 15.238281 18.460938 27.691406 0 16.542969-13.457031 30-30 30v30h30c16.542969 0 30 13.457031 30 30zm0 0"/></svg>