<svg fill="#000" height="512pt" viewBox="-91 0 512 512" width="512pt" xmlns="https://www.w3.org/2000/svg"><path d="m330 180h-30.839844c-5.511718-49.644531-38.050781-91.253906-82.535156-109.730469l6.230469-40.269531h77.144531v-30h-102.855469l-9.582031 61.894531c-7.339844-1.238281-14.875-1.894531-22.5625-1.894531-69.367188 0-126.675781 52.59375-134.160156 120h-30.839844v90h31.746094l30 242h206.507812l30-242h31.746094zm-61.074219 0h-69.28125l12.214844-78.945312c30.167969 15.109374 52.089844 44.328124 57.066406 78.945312zm-103.925781-90c6.128906 0 12.132812.53125 17.976562 1.546875l-13.691406 88.453125h-108.210937c7.304687-50.816406 51.121093-90 103.925781-90zm-84.183594 332-11.40625-92h191.179688l-11.40625 92zm-15.125-122-3.71875-30h99.773438l-2.140625 30zm18.84375 152h64.355469l-2.144531 30h-58.492188zm92.289063 30 2.144531-30h66.496094l-3.71875 30zm87.484375-182h-74.628906l2.144531-30h76.203125zm35.691406-60h-270v-30h270zm0 0"/></svg>