<svg fill="#000" height="512pt" viewBox="-91 0 512 512" width="512pt" xmlns="https://www.w3.org/2000/svg"><path d="m330 0c-13.714844 0-322.082031 0-330 0v30h24.261719l-24.261719 73.589844v336.949218l35.730469 71.460938h258.539062l35.730469-71.460938v-336.949218l-24.261719-73.589844h24.261719zm-300 422v-61h84.898438c13.191406 18.742188 30.671874 30 50.101562 30s36.910156-11.257812 50.101562-30h84.898438v61zm180-151c0 53.039062-23.714844 90-45 90s-45-36.960938-45-90 23.714844-90 45-90 45 36.960938 45 90zm-110.265625 60h-69.734375v-120.011719h69.734375c-6.210937 17.554688-9.734375 38.007813-9.734375 60.011719s3.523438 42.445312 9.734375 60zm130.53125 0c6.210937-17.554688 9.734375-37.996094 9.734375-60s-3.523438-42.445312-9.734375-60h69.734375v120zm-15.164063-150c-13.191406-18.742188-30.671874-30-50.101562-30s-36.910156 11.257812-50.101562 30h-84.898438v-60h270v60zm-160.832031 301-15-30h251.460938l-15 30zm239.992188-391h-258.523438l20.109375-61h218.304688zm0 0"/></svg>