<svg fill="#000" height="512pt" viewBox="-91 0 512 512" width="512pt" xmlns="https://www.w3.org/2000/svg"><path d="m277.273438 470.035156 52.457031 41.964844v-512l-52.457031 41.964844-37.46875-29.976563-37.46875 29.976563-37.472657-29.976563-37.46875 29.976563-37.46875-29.976563-37.46875 29.976563-52.457031-41.964844v512l52.457031-41.964844 37.46875 29.976563 37.46875-29.976563 37.46875 29.976563 37.472657-29.976563 37.46875 29.976563zm-112.410157-8.414062-37.46875-29.972656-37.46875 29.972656-37.46875-29.972656-22.480469 17.984374v-387.265624l22.480469 17.984374 37.46875-29.972656 37.46875 29.972656 37.46875-29.972656 37.472657 29.972656 37.46875-29.972656 37.46875 29.972656 22.480468-17.984374v387.265624l-22.480468-17.984374-37.46875 29.972656-37.46875-29.972656zm0 0"/><path d="m149.878906 330.9375h29.972656v-29.976562h29.976563v-89.925782h-59.949219v-29.972656h59.949219v-29.976562h-29.976563v-29.976563h-29.972656v29.976563h-29.976562v89.925781h59.949218v29.976562h-59.949218v29.972657h29.976562zm0 0"/><path d="m59.949219 360.914062h209.828125v29.976563h-209.828125zm0 0"/></svg>