<svg fill="#000" height="512pt" viewBox="-61 0 512 512" width="512pt" xmlns="https://www.w3.org/2000/svg"><path d="m179.925781 120.164062h-59.976562v-119.953124h-29.988281v119.953124h-59.972657v-119.953124h-29.988281v164.933593c0 36.203125 25.796875 66.492188 59.976562 73.460938v31.496093h-14.996093v241.898438h119.953125v-241.898438h-14.996094v-31.496093c34.179688-6.964844 59.976562-37.257813 59.976562-73.460938 0-38.71875 0-148.601562 0-164.933593h-29.988281zm-44.980469 209.910157h-59.976562v-29.988281h59.976562zm-59.976562 151.9375v-121.949219h59.976562v121.949219zm14.992188-211.910157v-29.988281h29.988281v29.988281zm89.964843-104.957031c0 24.800781-20.179687 44.980469-44.980469 44.980469h-59.976562c-24.800781 0-44.980469-20.179688-44.980469-44.980469v-14.996093h149.9375zm0 0"/><path d="m239.902344 166.261719v193.800781h59.972656v151.9375h89.964844c0-24.957031 0-490.507812 0-512l-25.007813 6.253906c-73.558593 18.386719-124.929687 84.1875-124.929687 160.007813zm29.984375 163.8125v-163.8125c0-57.734375 36.402343-108.363281 89.964843-127.238281v30.011718c-38.203124 31.582032-59.976562 78.199219-59.976562 127.210938v133.828125zm89.964843-218.554688v218.558594h-29.988281v-133.832031c0-30.980469 10.867188-60.941406 29.988281-84.726563zm-29.988281 370.492188v-61.972657h29.988281v61.972657zm29.988281-91.960938h-29.988281v-29.988281h29.988281zm0 0"/></svg>