<svg fill="#000" height="512pt" viewBox="0 0 512 512" width="512pt" xmlns="https://www.w3.org/2000/svg"><path d="m31.53125 392.027344c-1.015625 4.90625-1.53125 9.914062-1.53125 14.972656 0 36.21875 25.808594 66.523438 60 73.492188v31.507812h332v-31.507812c34.191406-6.96875 60-37.273438 60-73.492188 0-5.058594-.515625-10.066406-1.53125-14.972656 20.152344-19.695313 31.53125-46.523438 31.53125-75.027344s-11.378906-55.332031-31.53125-75.027344c1.019531-4.90625 1.53125-9.914062 1.53125-14.972656 0-33.175781-21.660156-61.371094-51.574219-71.234375 13.878907-15.089844 21.574219-32.902344 21.574219-50.765625 0-30.007812-21.859375-57.382812-61.554688-77.074219-36.289062-18.007812-84.035156-27.925781-134.445312-27.925781s-98.15625 9.917969-134.445312 27.925781c-39.695313 19.691407-61.554688 47.066407-61.554688 77.074219 0 17.863281 7.695312 35.675781 21.574219 50.765625-29.914063 9.863281-51.574219 38.058594-51.574219 71.234375 0 5.058594.515625 10.066406 1.53125 14.972656-20.152344 19.695313-31.53125 46.523438-31.53125 75.027344s11.378906 55.332031 31.53125 75.027344zm420.46875-165.027344c0 11.113281-3.902344 17.464844-6.242188 24.894531 2.726563 3.183594 36.242188 21.914063 36.242188 65.105469 0 43.070312-33.496094 61.898438-36.242188 65.105469 2.390626 7.589843 6.242188 13.894531 6.242188 24.894531 0 19.554688-12.539062 36.226562-30 42.421875v-264.84375c17.460938 6.195313 30 22.867187 30 42.421875zm-317.113281-172.203125c32.226562-15.988281 75.242187-24.796875 121.113281-24.796875s88.886719 8.808594 121.113281 24.796875c28.527344 14.15625 44.886719 32.453125 44.886719 50.203125 0 25.566406-28.398438 42.640625-30 44.277344v332.722656h-272v-332.722656c-1.554688-1.585938-30-18.605469-30-44.277344 0-17.75 16.359375-36.046875 44.886719-50.203125zm-68.644531 197.097656c-2.390626-7.589843-6.242188-13.894531-6.242188-24.894531 0-19.554688 12.539062-36.226562 30-42.421875v264.84375c-17.460938-6.195313-30-22.867187-30-42.421875 0-11.113281 3.902344-17.464844 6.242188-24.894531-2.726563-3.183594-36.242188-21.914063-36.242188-65.105469 0-43.070312 33.496094-61.898438 36.242188-65.105469zm0 0"/><path d="m271 362h30v30h-30zm0 0"/><path d="m331 392h30v30h-30zm0 0"/><path d="m241 422h30v30h-30zm0 0"/></svg>