<svg fill="#000" height="512pt" viewBox="0 0 512 512" width="512pt" xmlns="https://www.w3.org/2000/svg"><path d="m128.300781 449.402344c36.777344 12.390625 78.832031 3.847656 107.84375-25.167969l188.089844-188.089844c29.121094-29.117187 37.503906-71.234375 25.167969-107.84375l62.597656-37.5625-90.742188-90.738281-37.558593 62.597656c-36.609375-12.335937-78.726563-3.953125-107.84375 25.167969l-188.089844 188.085937c-29.121094 29.121094-37.503906 71.238282-25.167969 107.847657l-62.597656 37.558593 90.742188 90.742188zm298.910157-401.054688 36.441406 36.441406-27.851563 16.710938c-3.402343-4.824219-7.253906-9.421875-11.566406-13.734375s-8.910156-8.164063-13.734375-11.566406zm-318.25 248.703125 188.089843-188.089843c29.222657-29.21875 76.765625-29.21875 105.988281 0 29.21875 29.222656 29.21875 76.769531 0 105.988281l-188.089843 188.089843c-29.21875 29.21875-76.765625 29.21875-105.988281 0-29.21875-29.222656-29.21875-76.769531 0-105.988281zm-60.613282 130.160157 27.851563-16.710938c3.402343 4.824219 7.253906 9.421875 11.566406 13.734375s8.910156 8.164063 13.734375 11.566406l-16.710938 27.851563zm0 0"/><path d="m277.132812 177.058594h84.789063v29.976562h-84.789063zm0 0"/><path d="m213.179688 240.011719h84.789062v29.976562h-84.789062zm0 0"/><path d="m150.226562 303.964844h84.789063v29.976562h-84.789063zm0 0"/></svg>