<svg fill="#000" height="511pt" viewBox="-27 1 511 511.999" width="511pt" xmlns="https://www.w3.org/2000/svg"><path d="m458.085938 64.269531-259.234376-64.269531-198.351562 65.566406 39.449219 118.347656c15.398437 46.195313 15.398437 97.078126-.015625 143.316407l-35.449219 107.371093v77.398438h449.910156v-77.839844l-30.597656-77.523437c-18.523437-46.3125-21.164063-98.285157-7.433594-146.34375zm-258.046876-33.074219 200.507813 49.710938-96.214844 57.730469c.054688-1.1875.09375-2.375.09375-3.5625 0-41.347657-33.640625-74.984375-74.984375-74.984375-30.15625 0-57.46875 18.054687-69.195312 46.109375l-93.160156-31.054688zm73.507813 112.769532-84.765625-28.253906c7.265625-15.371094 22.828125-25.628907 40.660156-25.628907 24.804688 0 44.988282 20.183594 44.988282 44.992188 0 3.027343-.308594 5.996093-.882813 8.890625zm-239.066406 338.042968v-29.996093h389.921875v29.996093zm361.441406-114.296874 21.433594 54.308593h-377.128907l28.175782-85.347656c17.4375-52.3125 17.4375-109.929687 0-162.242187l-25.207032-75.632813 248.035157 82.679687 123.3125-73.988281-27.015625 94.5625c-15.550782 54.417969-12.558594 113.273438 8.394531 165.660157zm0 0"/><path d="m229.441406 211.058594c-41.347656 0-74.988281 33.640625-74.988281 74.988281 0 41.34375 33.640625 74.984375 74.988281 74.984375 41.34375 0 74.984375-33.640625 74.984375-74.984375 0-41.347656-33.640625-74.988281-74.984375-74.988281zm0 119.976562c-24.808594 0-44.992187-20.183594-44.992187-44.988281 0-24.808594 20.183593-44.992187 44.992187-44.992187 24.804688 0 44.988282 20.183593 44.988282 44.992187 0 24.804687-20.183594 44.988281-44.988282 44.988281zm0 0"/></svg>