<svg fill="#000" height="512pt" viewBox="0 0 512 512" width="512pt" xmlns="https://www.w3.org/2000/svg"><path d="m512 242h-61v-15c0-24.8125-20.1875-45-45-45s-45 20.1875-45 45v15h-30v-122.578125c4.695312 1.664063 9.742188 2.578125 15 2.578125 11.515625 0 22.03125-4.355469 30-11.496094 7.96875 7.140625 18.484375 11.496094 30 11.496094 24.8125 0 45-20.1875 45-45v-77c-34.679688 0-430.703125 0-451 0v77c0 20.054688 13.609375 36.507812 31 42.492188v122.507812h-31v210h66.148438c12.382812 34.921875 45.742187 60 84.851562 60s72.46875-25.078125 84.851562-60h125.148438v30h-30v30h90v-30h-30v-30h60v-180h61zm-121-15c0-8.269531 6.730469-15 15-15s15 6.730469 15 15v15h-30zm0-197h30v47c0 8.269531-6.730469 15-15 15s-15-6.730469-15-15zm-30 0v47c0 8.269531-6.730469 15-15 15s-15-6.730469-15-15v-47zm-90 0h30v47c0 8.269531-6.730469 15-15 15s-15-6.730469-15-15zm-60 0h30v47c0 8.269531-6.730469 15-15 15s-15-6.730469-15-15zm-60 0h30v47c0 8.269531-6.730469 15-15 15s-15-6.730469-15-15zm-60 0h30v47c0 8.269531-6.730469 15-15 15s-15-6.730469-15-15zm-61 0h31v47c0 8.269531-6.730469 15-15 15-8.523438 0-16-7.007812-16-15zm31 89.421875c5.585938-1.984375 10.671875-5.035156 15-8.917969 7.96875 7.140625 18.484375 11.496094 30 11.496094s22.03125-4.355469 30-11.496094c7.96875 7.140625 18.484375 11.496094 30 11.496094s22.03125-4.355469 30-11.496094c7.96875 7.140625 18.484375 11.496094 30 11.496094s22.03125-4.355469 30-11.496094c7.96875 7.140625 18.484375 11.496094 30 11.496094 5.257812 0 10.304688-.914062 15-2.578125v122.578125h-30v-60h-180v60h-30zm180 122.578125h-120v-30h120zm-90 240c-33.085938 0-60-26.914062-60-60s26.914062-60 60-60 60 26.914062 60 60-26.914062 60-60 60zm270-60h-180c0-49.625-40.375-90-90-90s-90 40.375-90 90h-31v-150h391zm0 0"/><path d="m136 407h30v30h-30zm0 0"/><path d="m301 302h90v30h-90zm0 0"/><path d="m301 362h90v30h-90zm0 0"/></svg>