<svg fill="#000" height="512pt" viewBox="0 0 512 512" width="512pt" xmlns="https://www.w3.org/2000/svg"><path d="m512 196v-98.535156l-131.03125-97.464844h-249.9375l-131.03125 97.464844v98.535156c0 20.054688 13.609375 36.507812 31 42.492188v243.507812h-31v30h512v-30h-31v-243.507812c17.425781-5.996094 31-22.457032 31-42.492188zm-61 226h-150v-121h150zm-30-226c0 8.269531-6.730469 15-15 15s-15-6.730469-15-15v-76h30zm-60 0c0 8.269531-6.730469 15-15 15s-15-6.730469-15-15v-76h30zm-60 0c0 8.269531-6.730469 15-15 15s-15-6.730469-15-15v-76h30zm-60 0c0 8.269531-6.730469 15-15 15s-15-6.730469-15-15v-76h30zm-60 0c0 8.269531-6.730469 15-15 15s-15-6.730469-15-15v-76h30zm-60 0c0 8.269531-6.730469 15-15 15s-15-6.730469-15-15v-76h30zm345 15c-8.269531 0-15-6.730469-15-15v-76h31v76c0 7.992188-7.476562 15-16 15zm-325.03125-181h230.0625l80.667969 60h-391.398438zm-110.96875 90h31v76c0 8.269531-6.730469 15-15 15-8.523438 0-16-7.007812-16-15zm181 241h-30v30h30v91h-90v-181h90zm30 121v-211h-150v211h-30v-243.578125c5.585938-1.984375 10.671875-5.035156 15-8.917969 7.96875 7.140625 18.484375 11.496094 30 11.496094s22.03125-4.355469 30-11.496094c7.96875 7.140625 18.484375 11.496094 30 11.496094s22.03125-4.355469 30-11.496094c7.96875 7.140625 18.484375 11.496094 30 11.496094s22.03125-4.355469 30-11.496094c7.96875 7.140625 18.484375 11.496094 30 11.496094s22.03125-4.355469 30-11.496094c7.96875 7.140625 18.484375 11.496094 30 11.496094s22.03125-4.355469 30-11.496094c7.96875 7.140625 18.484375 11.496094 30 11.496094s22.03125-4.355469 30-11.496094c4.328125 3.882813 9.414062 6.933594 15 8.917969v32.578125h-180v181h180v30zm0 0"/></svg>