<svg fill="#000" height="512pt" viewBox="0 0 512 512" width="512pt" xmlns="https://www.w3.org/2000/svg"><path d="m512 249.714844-61-60v-114.714844c0-41.355469-33.644531-75-75-75h-240c-41.355469 0-75 33.644531-75 75v114.714844l-61 60v262.285156h512zm-82.140625-38.714844 30.5 30h-408.71875l30.5-30zm-293.859375-181h240c24.8125 0 45 20.1875 45 45v106h-330v-106c0-24.8125 20.1875-45 45-45zm-106 452v-211h452v211zm0 0"/><path d="m256 301c-55.148438 0-135 21.878906-135 75 0 53.53125 80.78125 75 135 75 55.148438 0 135-21.878906 135-75 0-53.53125-80.78125-75-135-75zm0 120c-60.097656 0-105-23.757812-105-45s44.902344-45 105-45 105 23.757812 105 45-44.902344 45-105 45zm0 0"/><path d="m166 151h180c24.8125 0 45-20.1875 45-45 0-24.863281-20.097656-46-45-46h-180c-24.859375 0-45 21.097656-45 46 0 24.8125 20.1875 45 45 45zm0-61h180c7.988281 0 15 7.476562 15 16 0 8.269531-6.730469 15-15 15h-180c-8.269531 0-15-6.730469-15-15 0-8.523438 7.011719-16 15-16zm0 0"/><path d="m421 301h30v30h-30zm0 0"/><path d="m421 361h30v30h-30zm0 0"/><path d="m421 421h30v30h-30zm0 0"/><path d="m61 301h30v30h-30zm0 0"/><path d="m61 361h30v30h-30zm0 0"/><path d="m61 421h30v30h-30zm0 0"/></svg>