<svg fill="#000" height="512pt" viewBox="0 0 512 512" width="512pt" xmlns="https://www.w3.org/2000/svg"><path d="m0 512h512c0-179.484375 0-332.65625 0-512h-512zm482-30h-452c0-49.996094 0-210.882812 0-272h452zm-452-302v-30h452v30zm0-60v-30h452v30zm452-90v30h-452v-30zm0 0"/><path d="m422 255v-15h-332v15c0 8.269531-6.730469 15-15 15h-15v152h15c8.269531 0 15 6.730469 15 15v15h332v-15c0-8.269531 6.730469-15 15-15h15v-152h-15c-8.269531 0-15-6.730469-15-15zm-60 91c0 41.195312-48.542969 76-106 76s-106-34.804688-106-76 48.542969-76 106-76 106 34.804688 106 76zm-272 48.570312v-97.140624c12.769531-4.527344 22.894531-14.671876 27.421875-27.441407h44.035156c-26.742187 20.195313-41.457031 47.191407-41.457031 76.011719s14.726562 55.804688 41.464844 76h-44.035156c-4.527344-12.769531-14.660157-22.902344-27.429688-27.429688zm332 0c-12.769531 4.527344-22.902344 14.660157-27.429688 27.429688h-44.035156c26.738282-20.195312 41.464844-47.179688 41.464844-76s-14.726562-55.804688-41.464844-76h44.035156c4.527344 12.769531 14.660157 22.902344 27.429688 27.429688zm0 0"/><path d="m256 391c24.8125 0 45-20.1875 45-45s-20.1875-45-45-45-45 20.1875-45 45 20.1875 45 45 45zm0-60c8.269531 0 15 6.730469 15 15s-6.730469 15-15 15-15-6.730469-15-15 6.730469-15 15-15zm0 0"/></svg>