<svg fill="#000" height="512pt" viewBox="0 0 512 512.00103" width="512pt" xmlns="https://www.w3.org/2000/svg"><path d="m484.871094 27.128906c-21.6875-21.6875-53.457032-27.273437-80.351563-16.789062-59.285156-22.046875-127.601562-8.589844-174.191406 38l-181.472656 181.472656c-47.121094 47.121094-60.449219 116.277344-38.707031 174.890625-10.484376 26.898437-4.902344 58.671875 16.789062 80.359375 22.046875 22.042969 53.867188 27.210938 80.414062 16.808594 58.734376 21.757812 127.816407 8.292968 174.835938-38.726563l181.46875-181.46875c46.546875-46.546875 60.070312-114.84375 38.003906-174.191406 10.484375-26.898437 4.898438-58.667969-16.789062-80.355469zm-414.804688 223.894532 181.472656-181.46875c32.433594-32.4375 78.117188-45.753907 121.828126-36.980469l-340.871094 340.867187c-8.328125-43.546875 5.363281-90.207031 37.570312-122.417968zm-21.917968 212.828124c-17.542969-17.546874-17.542969-46.09375 0-63.636718l351.875-351.875c17.542968-17.542969 46.089843-17.542969 63.636718 0 17.542969 17.546875 17.542969 46.09375 0 63.636718l-351.875 351.875c-17.585937 17.582032-46.046875 17.585938-63.636718 0zm394.296874-203.390624-181.46875 181.472656c-32.210937 32.207031-78.871093 45.898437-122.417968 37.570312l340.867187-340.871094c8.769531 43.714844-4.542969 89.394532-36.980469 121.828126zm0 0"/><path d="m143.144531 385.414062c0-15.25 12.882813-28.132812 28.132813-28.132812 31.664062 0 57.425781-25.761719 57.425781-57.421875 0-15.125 12.300781-27.425781 27.421875-27.425781 31.664062 0 57.425781-25.761719 57.425781-57.425782 0-15.121093 12.300781-27.421874 27.425781-27.421874 31.664063 0 57.421876-25.761719 57.421876-57.425782 0-15.121094 12.304687-27.421875 27.425781-27.421875v-30c-31.664063 0-57.425781 25.761719-57.425781 57.421875 0 15.125-12.300782 27.425782-27.421876 27.425782-31.664062 0-57.425781 25.761718-57.425781 57.421874 0 15.125-12.300781 27.425782-27.425781 27.425782-31.660156 0-57.421875 25.761718-57.421875 57.425781 0 15.121094-12.304687 27.421875-27.425781 27.421875-15.335938 0-29.882813 6.097656-40.957032 17.171875-11.074218 11.074219-17.171874 25.621094-17.171874 40.957031 0 14.867188-12.890626 27.425782-28.144532 27.425782v30c32.058594 0 58.140625-25.757813 58.140625-57.421876zm0 0"/></svg>