<svg fill="#000" height="512pt" viewBox="-83 0 512 512" width="512pt" xmlns="https://www.w3.org/2000/svg"><path d="m306.359375 512 38.8125-454.3125c-8.359375-4.140625-70.675781-57.6875-172.585937-57.6875-102.332032 0-163.679688 53.277344-172.585938 57.6875l38.8125 454.3125zm-96.886719-260.640625 93.855469-56.3125-13.902344 162.753906c-15.839843-43.65625-42.339843-77.347656-79.953125-106.441406zm13.417969-43.035156c-33.75 20.289062-33.519531 20.027343-40.195313 24.230469-15.523437-9.960938-32.898437-19.722657-52.402343-29.472657l-2.984375-1.492187c11.226562-12.953125 27.5625-20.589844 45.277344-20.589844 20.417968 0 39.367187 10.613281 50.304687 27.324219zm25.757813-15.453125c-9.054688-14.316406-22.027344-25.855469-37.550782-33.226563-3.8125-10.277343-9.253906-19.9375-16.042968-28.5625 11.324218-6.554687 24.234374-10.082031 37.53125-10.082031 28.976562 0 54.574218 16.335938 67.042968 41.28125zm-76.101563-41.871094c-29.191406.015625-55.875 13.84375-72.644531 36.886719l-53.722656-26.859375c12.6875-24.242188 37.917968-40.027344 66.40625-40.027344 23.945312 0 46.042968 11.589844 59.960937 30zm-130.9375 41.28125 75.265625 37.632812c120.15625 60.078126 160.710938 123.058594 160.710938 249.578126v2.507812h-211.226563zm-10.164063-119.46875c42.140626-28.007812 90.949219-42.8125 141.140626-42.8125 82.792968 0 135.089843 39.96875 141.183593 42.839844l-4.40625 51.582031c-20.3125-21.828125-48.394531-33.421875-76.777343-33.421875-21.589844 0-42.457032 6.632812-59.976563 18.835938-17.648437-12.335938-38.308594-18.835938-60.023437-18.835938-28.34375 0-56.4375 11.566406-76.773438 33.421875l-4.410156-51.582031zm0 0"/><path d="m97.585938 422h30v30h-30zm0 0"/><path d="m157.585938 392h30v30h-30zm0 0"/><path d="m97.585938 362h30v30h-30zm0 0"/></svg>