<svg fill="#000" height="512pt" viewBox="0 0 512 512.001" width="512pt" xmlns="https://www.w3.org/2000/svg"><path d="m317.082031 0c-107.480469 0-194.917969 87.441406-194.917969 194.917969 0 37.476562 10.640626 72.511719 29.046876 102.257812l-151.210938 151.210938 63.613281 63.613281 151.210938-151.210938c29.746093 18.40625 64.78125 29.046876 102.257812 29.046876 107.476563 0 194.917969-87.4375 194.917969-194.917969 0-107.476563-87.4375-194.917969-194.917969-194.917969zm-134.945312 100.199219v94.71875c0 36.203125 25.796875 66.496093 59.976562 73.460937v73.429688c-53.359375-27.347656-89.964843-82.921875-89.964843-146.890625 0-35.222657 11.105468-67.894531 29.988281-94.71875zm119.949219 94.71875c0 24.804687-20.175782 44.980469-44.980469 44.980469-24.800781 0-44.980469-20.175782-44.980469-44.980469zm-238.472657 274.671875-21.203125-21.203125 126.714844-126.71875c6.519531 7.597656 13.609375 14.6875 21.207031 21.207031zm208.488281-115.976563v-85.234375c34.175782-6.964844 59.972657-37.253906 59.972657-73.460937v-104.957031h-29.988281v74.96875h-29.984376v-74.96875h-29.988281v74.96875h-29.988281v-74.96875h-22.175781c30.277343-36.605469 76.027343-59.972657 127.132812-59.972657s96.855469 23.367188 127.132813 59.972657h-7.183594c-41.335938 0-74.96875 33.632812-74.96875 74.96875v134.945312h59.976562v22.175781c-28.539062 23.601563-65.121093 37.800781-104.957031 37.800781-15.589843 0-30.675781-2.175781-44.980469-6.238281zm149.9375-83.726562h-29.988281v-104.957031c0-19.546876 12.535157-36.222657 29.988281-42.410157zm29.988282 19.75v-189.4375c18.882812 26.824219 29.984375 59.496093 29.984375 94.71875 0 35.222656-11.101563 67.898437-29.984375 94.71875zm0 0"/></svg>