<?xml version="1.0" encoding="iso-8859-1"?>
<!-- Generator: Adobe Illustrator 19.0.0, SVG Export Plug-In . SVG Version: 6.00 Build 0)  -->
<svg fill="#000" version="1.1" id="Capa_1" xmlns="http://www.w3.org/2000/svg" xmlns:xlink="http://www.w3.org/1999/xlink" x="0px" y="0px"
	 viewBox="0 0 512 512" style="enable-background:new 0 0 512 512;" xml:space="preserve">
<g>
	<g>
		<path d="M461.168,198.493c-20.457-37.356-48.469-60.68-83.256-69.323c-40.679-10.108-80.89,2.566-105.638,13.693
			c1.372-25.119-0.592-47.338-5.852-66.557c10.29,13.45,31.822,35.689,64.193,40.19c3.895,0.541,7.805,0.812,11.74,0.812
			c30.364,0,61.856-16.12,93.784-48.048l10.607-10.606l-10.607-10.606C400.075,11.982,364.573-3.909,330.615,0.811
			c-46.067,6.404-70.183,48.732-71.187,50.53l-1.347,2.414c-4.766-9.915-10.683-18.764-17.771-26.5
			C219.596,4.642,196.813,0.574,194.284,0.186l-4.563,29.651l-0.175-0.028c2.508,0.449,59.157,11.854,52.598,114.155
			c-24.491-11.361-66.029-25.237-108.056-14.793c-34.788,8.643-62.799,31.967-83.256,69.323
			c-20.182,36.853-25.61,82.219-15.697,131.193c8.595,42.466,28.138,84.731,55.029,119.01
			c31.945,40.723,69.124,63.305,102.725,63.302c5.97-0.001,11.836-0.715,17.531-2.167c4.428-0.767,25.629-4.8,45.581-14.789
			c19.953,9.988,41.152,14.022,45.581,14.789c5.696,1.452,11.558,2.167,17.531,2.167c33.598,0,70.782-22.583,102.725-63.302
			c26.891-34.279,46.434-76.545,55.029-119.01C486.778,280.712,481.35,235.347,461.168,198.493z M334.746,30.525
			c20.976-2.909,44.091,6.538,68.853,28.127c-24.673,21.512-47.718,30.974-68.63,28.158c-21.579-2.908-36.832-18.622-44.254-28.149
			C298.115,49.181,313.334,33.502,334.746,30.525z M398.231,430.179c-29.765,37.942-64.119,57.279-89.646,50.476l-0.754-0.201
			l-0.772-0.122c-6.771-1.069-27.759-5.892-43.341-15.241l-7.717-4.631l-7.717,4.631c-18.625,11.174-43.117,15.205-43.342,15.241
			l-0.771,0.122l-0.754,0.201c-25.536,6.803-59.882-12.533-89.647-50.476c-45.538-58.05-72.741-151.323-36.623-217.276
			c16.235-29.646,37.775-48.01,64.024-54.58c51.444-12.872,106.051,22.302,106.575,22.644l8.254,5.44l8.254-5.44
			c0.541-0.357,54.723-35.522,106.422-22.682c26.319,6.539,47.912,24.916,64.177,54.618
			C470.971,278.856,443.769,372.129,398.231,430.179z"/>
	</g>
</g>
<g>
</g>
<g>
</g>
<g>
</g>
<g>
</g>
<g>
</g>
<g>
</g>
<g>
</g>
<g>
</g>
<g>
</g>
<g>
</g>
<g>
</g>
<g>
</g>
<g>
</g>
<g>
</g>
<g>
</g>
</svg>
